<svg width="3036" height="2393" viewBox="0 0 3036 2393" fill="none" xmlns="http://www.w3.org/2000/svg">
<path fill-rule="evenodd" clip-rule="evenodd" d="M0 120.458C0 54.2439 53.6775 0.566406 119.892 0.566406H944.482H1009.76H2202.02C2662.57 0.566406 3035.93 373.923 3035.93 834.481C3035.93 1295.04 2662.57 1668.4 2202.02 1668.4H1169.61H944.482H608.785C544.042 1668.4 491.557 1615.91 491.557 1551.17C491.557 1486.43 544.042 1433.94 608.785 1433.94H944.482H1169.61H1348.78C1414.63 1433.94 1468.01 1380.56 1468.01 1314.72C1468.01 1248.87 1414.63 1195.49 1348.78 1195.49H1232.22H944.482H940.486C874.271 1195.49 820.594 1141.81 820.594 1075.6C820.594 1009.38 874.271 955.706 940.486 955.706H944.482H1230.22C1296.07 955.706 1349.45 902.327 1349.45 836.48C1349.45 770.632 1296.07 717.254 1230.22 717.254H1053.05H944.482H661.404C595.557 717.254 542.178 663.874 542.178 598.028C542.178 532.182 595.558 478.802 661.404 478.802H944.482H1053.05H1130.31C1196.16 478.802 1249.54 425.422 1249.54 359.576C1249.54 293.73 1196.16 240.35 1130.31 240.35H1009.76H944.482H119.892C53.6775 240.35 0 186.673 0 120.458ZM460.918 1195.49C527.133 1195.49 580.81 1141.81 580.81 1075.6C580.81 1009.38 527.133 955.706 460.918 955.706C394.703 955.706 341.026 1009.38 341.026 1075.6C341.026 1141.81 394.703 1195.49 460.918 1195.49ZM251.773 591.367C251.773 660.893 195.412 717.254 125.887 717.254C56.3613 717.254 0 660.893 0 591.367C0 521.842 56.3613 465.481 125.887 465.481C195.412 465.481 251.773 521.842 251.773 591.367ZM2824.12 747.227C2824.12 881.079 2780.97 1004.85 2707.83 1105.4C2758.85 1019.67 2788.15 919.508 2788.15 812.501C2788.15 495.775 2531.4 239.018 2214.67 239.018C1897.94 239.018 1641.19 495.775 1641.19 812.501C1641.19 919.508 1670.49 1019.67 1721.52 1105.4C1648.37 1004.85 1605.22 881.079 1605.22 747.227C1605.22 410.637 1878.08 137.776 2214.67 137.776C2551.26 137.776 2824.12 410.637 2824.12 747.227ZM2888.06 739.9C2888.06 1112.17 2586.28 1413.96 2214 1413.96C1841.73 1413.96 1539.95 1112.17 1539.95 739.9C1539.95 589.065 1589.49 449.802 1673.19 337.495C1562.05 464.119 1494.65 630.108 1494.65 811.835C1494.65 1209.12 1816.72 1531.19 2214 1531.19C2611.29 1531.19 2933.36 1209.12 2933.36 811.835C2933.36 630.108 2865.96 464.119 2754.82 337.495C2838.52 449.802 2888.06 589.065 2888.06 739.9ZM2098.78 316.523C2065.62 323.838 2044.82 336.474 2044.82 336.474V476.138H2159.39V311.202C2159.39 311.202 2131.93 309.207 2098.78 316.523ZM2301.26 316.771C2334.42 324.087 2355.21 336.723 2355.21 336.723V476.387H2240.65V311.45C2240.65 311.45 2268.1 309.456 2301.26 316.771ZM1890.3 508.358H2159.39V621.589H2003.53V757.467H2357.88C2395.4 757.467 2425.81 727.049 2425.81 689.528C2425.81 652.006 2395.4 621.589 2357.88 621.589H2240.65V508.358H2357.21C2457.64 508.358 2539.05 589.769 2539.05 690.194C2539.05 739.052 2519.78 783.409 2488.42 816.081C2519.78 848.753 2539.05 893.109 2539.05 941.967C2539.05 1042.39 2457.64 1123.8 2357.21 1123.8H2240.65V1007.91H2357.88C2395.4 1007.91 2425.81 977.49 2425.81 939.969C2425.81 902.447 2395.4 872.03 2357.88 872.03H2003.53V1007.91H2159.39V1123.8H1890.3V872.03V760.131V508.358ZM2355.21 1297.02C2355.21 1297.02 2334.42 1309.65 2301.26 1316.97C2268.1 1324.29 2240.65 1322.29 2240.65 1322.29V1157.36H2355.21V1297.02ZM2044.82 1296.77C2044.82 1296.77 2065.62 1309.41 2098.78 1316.72C2131.93 1324.04 2159.39 1322.04 2159.39 1322.04V1157.11H2044.82V1296.77Z" fill="url(#paint0_linear_282_177)"/>
<path fill-rule="evenodd" clip-rule="evenodd" d="M0 1908.57V2382.29H238.975C298.403 2382.29 343.501 2371.01 374.268 2348.46C405.457 2325.45 421.052 2293.41 421.052 2252.36C421.052 2224.84 414.519 2201.6 401.453 2182.65C388.809 2163.25 370.896 2148.59 347.715 2138.66C345.038 2137.46 342.306 2136.33 339.522 2135.27C357.167 2125.09 371.067 2112.23 381.222 2096.7C393.445 2078.21 399.557 2056.78 399.557 2032.41C399.557 1995.42 385.226 1965.64 356.566 1943.08C327.906 1920.07 284.494 1908.57 226.331 1908.57H0ZM228.86 2285.52H123.913V2189.42H228.86C250.355 2189.42 266.582 2193.48 277.54 2201.6C288.92 2209.27 294.61 2221.23 294.61 2237.47C294.61 2253.71 288.92 2265.89 277.54 2274.01C266.582 2281.68 250.355 2285.52 228.86 2285.52ZM123.913 2096.7V2005.34H209.894C230.967 2005.34 246.773 2009.18 257.309 2016.85C267.846 2024.07 273.115 2035.34 273.115 2050.68C273.115 2066.02 267.846 2077.53 257.309 2085.2C246.773 2092.87 230.967 2096.7 209.894 2096.7H123.913ZM501.045 2347.62C529.306 2377.24 568.612 2392.05 618.962 2392.05C669.312 2392.05 708.617 2377.24 736.878 2347.62C765.139 2318.01 779.27 2276.02 779.27 2221.66V2018.87H684.254V2218.53C684.254 2249.89 678.57 2272.36 667.2 2285.95C655.831 2299.54 640.076 2306.33 619.936 2306.33C599.796 2306.33 583.879 2299.54 572.185 2285.95C560.816 2272.36 555.131 2249.89 555.131 2218.53V2018.87H458.654V2221.66C458.654 2276.02 472.784 2318.01 501.045 2347.62ZM1005.14 2392.05C978.154 2392.05 953.115 2387.52 930.027 2378.47C907.264 2369.06 887.428 2355.83 870.519 2338.76C853.934 2321.7 840.927 2301.67 831.497 2278.69C822.066 2255.35 817.351 2229.76 817.351 2201.89C817.351 2174.03 822.066 2148.61 831.497 2125.62C840.927 2102.29 853.934 2082.09 870.519 2065.02C887.428 2047.96 907.264 2034.9 930.027 2025.84C953.115 2016.44 978.154 2011.74 1005.14 2011.74C1036.69 2011.74 1064.82 2017.66 1089.53 2029.5C1114.57 2041.34 1135.38 2058.41 1151.96 2080.7L1090.51 2140.25C1079.45 2126.32 1067.25 2115.7 1053.92 2108.38C1040.91 2101.07 1026.28 2097.41 1010.02 2097.41C996.039 2097.41 983.195 2099.85 971.488 2104.73C959.781 2109.6 949.701 2116.74 941.246 2126.15C933.116 2135.2 926.613 2146.17 921.735 2159.06C917.182 2171.94 914.906 2186.22 914.906 2201.89C914.906 2217.57 917.182 2231.84 921.735 2244.73C926.613 2257.62 933.116 2268.76 941.246 2278.16C949.701 2287.22 959.781 2294.18 971.488 2299.06C983.195 2303.94 996.039 2306.37 1010.02 2306.37C1026.28 2306.37 1040.91 2302.72 1053.92 2295.4C1067.25 2288.09 1079.45 2277.47 1090.51 2263.54L1151.96 2323.09C1135.38 2345.03 1114.57 2362.1 1089.53 2374.29C1064.82 2386.13 1036.69 2392.05 1005.14 2392.05ZM1286.36 2293.22V2384.91H1190.8V2018.87H1286.36V2170.94L1418.48 2018.87H1524.76L1385.43 2180.77L1532.08 2384.91H1419.94L1322.2 2252.03L1286.36 2293.22ZM1682.93 2392.05C1654.95 2392.05 1627.94 2388.39 1601.91 2381.08C1576.21 2373.42 1555.22 2363.66 1538.95 2351.82L1570.68 2275.55C1585.97 2286 1603.54 2294.71 1623.39 2301.67C1643.56 2308.29 1663.57 2311.6 1683.42 2311.6C1696.76 2311.6 1707.5 2310.38 1715.63 2307.94C1723.77 2305.16 1729.63 2301.67 1733.21 2297.49C1737.11 2292.97 1739.06 2287.74 1739.06 2281.82C1739.06 2273.46 1735.48 2266.85 1728.32 2261.97C1721.17 2257.09 1711.89 2253.09 1700.5 2249.95C1689.12 2246.82 1676.43 2243.69 1662.43 2240.55C1648.77 2237.42 1634.94 2233.41 1620.95 2228.54C1607.28 2223.66 1594.75 2217.39 1583.37 2209.73C1571.98 2201.72 1562.7 2191.45 1555.55 2178.91C1548.39 2166.02 1544.81 2149.83 1544.81 2130.32C1544.81 2108.38 1550.34 2088.53 1561.4 2070.77C1572.79 2053.01 1589.71 2038.73 1612.16 2027.93C1634.61 2017.14 1662.6 2011.74 1696.11 2011.74C1718.56 2011.74 1740.53 2014.53 1762 2020.1C1783.8 2025.32 1803.16 2033.16 1820.08 2043.61L1790.31 2120.4C1774.04 2111 1757.93 2104.03 1741.99 2099.5C1726.05 2094.63 1710.59 2092.19 1695.62 2092.19C1682.28 2092.19 1671.54 2093.76 1663.41 2096.89C1655.28 2099.68 1649.42 2103.51 1645.84 2108.38C1642.26 2113.26 1640.47 2118.83 1640.47 2125.1C1640.47 2133.11 1643.89 2139.55 1650.72 2144.43C1657.88 2148.96 1667.15 2152.79 1678.54 2155.92C1690.25 2158.71 1702.94 2161.67 1716.61 2164.8C1730.6 2167.94 1744.43 2171.94 1758.1 2176.82C1772.09 2181.35 1784.78 2187.61 1796.17 2195.62C1807.56 2203.29 1816.67 2213.56 1823.5 2226.45C1830.66 2238.98 1834.24 2254.83 1834.24 2273.99C1834.24 2295.23 1828.54 2314.91 1817.15 2333.02C1806.09 2350.78 1789.33 2365.06 1766.88 2375.85C1744.76 2386.65 1716.77 2392.05 1682.93 2392.05ZM1925.64 1908.87V2382.59H2164.62C2224.05 2382.59 2269.14 2371.32 2299.91 2348.76C2331.1 2325.75 2346.69 2293.71 2346.69 2252.66C2346.69 2225.14 2340.16 2201.9 2327.1 2182.95C2314.45 2163.55 2296.54 2148.89 2273.36 2138.96C2270.68 2137.76 2267.95 2136.64 2265.16 2135.57C2282.81 2125.39 2296.71 2112.53 2306.86 2097C2319.09 2078.51 2325.2 2057.08 2325.2 2032.71C2325.2 1995.72 2310.87 1965.94 2282.21 1943.38C2253.55 1920.37 2210.14 1908.87 2151.97 1908.87H1925.64ZM2154.5 2285.82H2049.56V2189.72H2154.5C2176 2189.72 2192.22 2193.78 2203.18 2201.9C2214.56 2209.57 2220.25 2221.53 2220.25 2237.77C2220.25 2254.01 2214.56 2266.19 2203.18 2274.31C2192.22 2281.98 2176 2285.82 2154.5 2285.82ZM2049.56 2097V2005.64H2135.54C2156.61 2005.64 2172.42 2009.48 2182.95 2017.15C2193.49 2024.37 2198.76 2035.65 2198.76 2050.99C2198.76 2066.33 2193.49 2077.83 2182.95 2085.5C2172.42 2093.17 2156.61 2097 2135.54 2097H2049.56ZM2545.01 2392.05C2494.86 2392.05 2455.71 2377.33 2427.55 2347.89C2399.4 2318.45 2385.33 2276.71 2385.33 2222.68V2021.09H2481.43V2219.56C2481.43 2250.73 2487.09 2273.07 2498.42 2286.58C2510.07 2300.09 2525.92 2306.84 2545.98 2306.84C2566.05 2306.84 2581.74 2300.09 2593.06 2286.58C2604.39 2273.07 2610.05 2250.73 2610.05 2219.56V2021.09H2704.7V2222.68C2704.7 2276.71 2690.62 2318.45 2662.47 2347.89C2634.32 2377.33 2595.17 2392.05 2545.01 2392.05ZM2805.06 2381.14C2830.93 2388.41 2857.78 2392.05 2885.6 2392.05C2919.23 2392.05 2947.05 2386.68 2969.05 2375.95C2991.36 2365.22 3008.02 2351.02 3019.02 2333.37C3030.34 2315.36 3036 2295.8 3036 2274.69C3036 2255.65 3032.44 2239.89 3025.33 2227.43C3018.53 2214.62 3009.48 2204.41 2998.16 2196.79C2986.84 2188.83 2974.22 2182.6 2960.31 2178.1C2946.73 2173.25 2932.98 2169.27 2919.07 2166.15C2905.49 2163.04 2892.87 2160.09 2881.23 2157.33C2869.91 2154.21 2860.69 2150.4 2853.57 2145.9C2846.78 2141.05 2843.39 2134.65 2843.39 2126.69C2843.39 2120.45 2845.16 2114.92 2848.72 2110.07C2852.28 2105.22 2858.1 2101.41 2866.19 2098.64C2874.27 2095.53 2884.95 2093.97 2898.21 2093.97C2913.09 2093.97 2928.45 2096.39 2944.3 2101.24C2960.15 2105.74 2976.16 2112.67 2992.33 2122.01L3021.93 2045.68C3005.11 2035.29 2985.87 2027.5 2964.19 2022.31C2942.85 2016.77 2921.01 2014 2898.7 2014C2865.38 2014 2837.56 2019.36 2815.25 2030.1C2792.93 2040.83 2776.11 2055.02 2764.79 2072.68C2753.79 2090.34 2748.29 2110.07 2748.29 2131.88C2748.29 2151.27 2751.85 2167.36 2758.96 2180.17C2766.08 2192.64 2775.3 2202.85 2786.62 2210.81C2797.94 2218.43 2810.39 2224.66 2823.98 2229.51C2837.89 2234.35 2851.63 2238.34 2865.22 2241.45C2879.13 2244.57 2891.74 2247.68 2903.06 2250.8C2914.38 2253.91 2923.6 2257.9 2930.72 2262.74C2937.83 2267.59 2941.39 2274.17 2941.39 2282.48C2941.39 2288.36 2939.45 2293.55 2935.57 2298.05C2932.01 2302.21 2926.19 2305.67 2918.1 2308.44C2910.02 2310.86 2899.34 2312.08 2886.08 2312.08C2866.35 2312.08 2846.46 2308.79 2826.4 2302.21C2806.67 2295.29 2789.21 2286.63 2774.01 2276.24L2742.47 2352.06C2758.64 2363.83 2779.5 2373.53 2805.06 2381.14Z" fill="#FF9A18"/>
<defs>
<linearGradient id="paint0_linear_282_177" x1="3452.42" y1="1304.36" x2="56.4759" y2="1457.26" gradientUnits="userSpaceOnUse">
<stop stop-color="#FFB527"/>
<stop offset="1" stop-color="#FF820A"/>
<stop offset="1" stop-color="#FF7D00"/>
</linearGradient>
</defs>
</svg>
