<svg width="28" height="28" viewBox="0 0 28 28" fill="none" xmlns="http://www.w3.org/2000/svg">
<path d="M14.6512 11.7785L22.8546 20.0207C23.0721 20.2366 23.2447 20.4934 23.3625 20.7763C23.4804 21.0592 23.541 21.3626 23.541 21.669C23.541 21.9755 23.4804 22.2789 23.3625 22.5618C23.2447 22.8447 23.0721 23.1015 22.8546 23.3174C22.4153 23.7543 21.8208 23.9996 21.2012 23.9996C20.5816 23.9996 19.9872 23.7543 19.5479 23.3174L11.3179 15.1118M7.199 17.6596L4.32566 14.7863C4.11736 14.5779 4.00035 14.2953 4.00035 14.0007C4.00035 13.7061 4.11736 13.4235 4.32566 13.2151L12.7546 4.78626C12.9629 4.57795 13.2455 4.46094 13.5401 4.46094C13.8347 4.46094 14.1173 4.57795 14.3257 4.78626L17.199 7.65959C17.4073 7.86795 17.5243 8.15052 17.5243 8.44514C17.5243 8.73977 17.4073 9.02234 17.199 9.2307L8.77011 17.6596C8.56174 17.8679 8.27918 17.9849 7.98455 17.9849C7.68993 17.9849 7.40736 17.8679 7.199 17.6596Z" stroke="#FDFDFD" stroke-width="1.33333" stroke-linecap="round" stroke-linejoin="round"/>
</svg>
