<svg width="28" height="28" viewBox="0 0 28 28" fill="none" xmlns="http://www.w3.org/2000/svg">
<g id="iconoir:profile-circle">
<g id="Group">
<path id="Vector" d="M14 2.33337C7.55654 2.33337 2.33337 7.55654 2.33337 14C2.33337 20.4435 7.55654 25.6667 14 25.6667C20.4435 25.6667 25.6667 20.4435 25.6667 14C25.6667 7.55654 20.4435 2.33337 14 2.33337Z" stroke="#2B2D2E" stroke-width="1.4" stroke-linecap="round" stroke-linejoin="round"/>
<path id="Vector_2" d="M4.98279 21.4037C4.98279 21.4037 7.58329 18.0833 14 18.0833C20.4166 18.0833 23.0183 21.4037 23.0183 21.4037M14 14C14.9282 14 15.8185 13.6313 16.4748 12.9749C17.1312 12.3185 17.5 11.4283 17.5 10.5C17.5 9.57174 17.1312 8.6815 16.4748 8.02513C15.8185 7.36875 14.9282 7 14 7C13.0717 7 12.1815 7.36875 11.5251 8.02513C10.8687 8.6815 10.5 9.57174 10.5 10.5C10.5 11.4283 10.8687 12.3185 11.5251 12.9749C12.1815 13.6313 13.0717 14 14 14Z" stroke="#2B2D2E" stroke-width="1.4" stroke-linecap="round" stroke-linejoin="round"/>
</g>
</g>
</svg>
