<svg width="28" height="28" viewBox="0 0 28 28" fill="none" xmlns="http://www.w3.org/2000/svg">
<path d="M18.1452 18.1453C18.9101 17.3804 19.5168 16.4723 19.9308 15.4729C20.3447 14.4736 20.5578 13.4024 20.5578 12.3207C20.5578 11.239 20.3447 10.1678 19.9308 9.16846C19.5168 8.16908 18.9101 7.26101 18.1452 6.49612C17.3803 5.73122 16.4722 5.12447 15.4728 4.71052C14.4734 4.29656 13.4023 4.0835 12.3206 4.0835C11.2389 4.0835 10.1677 4.29656 9.16834 4.71052C8.16895 5.12447 7.26089 5.73122 6.496 6.49612C4.95122 8.04089 4.08337 10.1361 4.08337 12.3207C4.08337 14.5053 4.95122 16.6005 6.496 18.1453C8.04077 19.6901 10.1359 20.5579 12.3206 20.5579C14.5052 20.5579 16.6004 19.6901 18.1452 18.1453ZM18.1452 18.1453L23.3333 23.3335" stroke="#2B2D2E" stroke-width="1.5" stroke-linecap="round" stroke-linejoin="round"/>
</svg>
