<svg width="38" height="19" viewBox="0 0 38 19" fill="none" xmlns="http://www.w3.org/2000/svg">
<path d="M36.9525 16.5305L32.7058 9.35884L36.9092 2.47968C37.009 2.31575 37.0634 2.12824 37.067 1.93636C37.0705 1.74447 37.023 1.55509 36.9294 1.38758C36.8357 1.22007 36.6992 1.08046 36.5339 0.983016C36.3685 0.885575 36.1803 0.833806 35.9883 0.833008H2.16667C1.59203 0.833008 1.04093 1.06128 0.634602 1.46761C0.228273 1.87394 0 2.42504 0 2.99967L0 15.9997C0 16.5743 0.228273 17.1254 0.634602 17.5317C1.04093 17.9381 1.59203 18.1663 2.16667 18.1663H36.0208C36.212 18.1663 36.3998 18.1157 36.5652 18.0196C36.7305 17.9235 36.8674 17.7853 36.962 17.6191C37.0566 17.453 37.1056 17.2648 37.1039 17.0735C37.1023 16.8823 37.05 16.695 36.9525 16.5305ZM11.3858 12.9447H10.1725L6.64083 8.24301V12.9555H5.41667V6.24967H6.64083L10.1833 10.9622V6.24967H11.3967L11.3858 12.9447ZM18.2433 7.33301H14.4192V8.94717H17.8858V10.0305H14.4192V11.7747H18.2433V12.858H13.195V6.24967H18.2325L18.2433 7.33301ZM27.2242 12.923H26L24.3208 7.95051L22.6417 12.9447H21.4283L19.2617 6.24967H20.5833L22.0133 11.0488L23.66 6.24967H24.9817L26.5633 11.0488L28.0042 6.24967H29.3367L27.2242 12.923Z" fill="#E5A329"/>
</svg>
