<svg width="24" height="24" viewBox="0 0 24 24" fill="none" xmlns="http://www.w3.org/2000/svg">
<g id="streamline:interface-signal-graph-heart-line-beat-square-graph-stats">
<path id="Vector" d="M0.857269 12.1368H4.61155C4.76963 12.135 4.92438 12.0912 5.05994 12.0099C5.1955 11.9285 5.30699 11.8126 5.38298 11.674L8.4687 5.50255C8.54475 5.3489 8.66599 5.22219 8.81615 5.13945C8.9663 5.05671 9.13818 5.0219 9.3087 5.03969C9.47854 5.05117 9.64064 5.11504 9.77266 5.2225C9.90468 5.32996 10.0001 5.47572 10.0458 5.63969L13.8687 18.3597C13.9189 18.5322 14.022 18.6846 14.1635 18.7954C14.305 18.9061 14.4777 18.9696 14.6573 18.9768C14.8255 18.9713 14.9884 18.9163 15.1256 18.8187C15.2628 18.7211 15.3682 18.5854 15.4287 18.4283L17.7773 12.6854C17.8419 12.5243 17.9531 12.3861 18.0966 12.2884C18.2401 12.1907 18.4094 12.138 18.583 12.1368H23.143" stroke="#2B2D2E" stroke-width="1.2" stroke-linecap="round" stroke-linejoin="round"/>
</g>
</svg>
