<svg width="29" height="28" viewBox="0 0 29 28" fill="none" xmlns="http://www.w3.org/2000/svg">
<g id="hugeicons:idea">
<path id="Vector" d="M6.3334 16.3334C5.458 14.8998 4.99646 13.2519 4.9999 11.5722C4.9999 6.46921 9.1789 2.33337 14.3332 2.33337C19.4876 2.33337 23.6666 6.46921 23.6666 11.5722C23.67 13.2519 23.2085 14.8998 22.3331 16.3334M17.8332 22.1667L17.6816 22.9215C17.5182 23.7464 17.4354 24.1582 17.2499 24.4849C16.9641 24.9884 16.5012 25.3676 15.9514 25.5489C15.5956 25.6667 15.1732 25.6667 14.3332 25.6667C13.4932 25.6667 13.0709 25.6667 12.7151 25.55C12.165 25.3685 11.7022 24.9888 11.4166 24.4849C11.2311 24.1582 11.1482 23.7464 10.9849 22.9215L10.8332 22.1667M14.3332 18.6667V12.8334M8.94673 19.9477C8.8394 19.6257 8.78573 19.4635 8.79156 19.3329C8.79816 19.1978 8.84377 19.0675 8.92286 18.9577C9.00195 18.848 9.11114 18.7635 9.23723 18.7145C9.35856 18.6667 9.5289 18.6667 9.86723 18.6667H18.7992C19.1387 18.6667 19.3079 18.6667 19.4292 18.7134C19.5555 18.7624 19.6648 18.8471 19.7439 18.9571C19.823 19.067 19.8685 19.1976 19.8749 19.3329C19.8807 19.4635 19.8271 19.6245 19.7197 19.9477C19.5214 20.5439 19.4222 20.8425 19.2694 21.084C18.9497 21.5888 18.4486 21.9516 17.8694 22.0979C17.5917 22.1667 17.2791 22.1667 16.6526 22.1667H12.0139C11.3874 22.1667 11.0736 22.1667 10.7971 22.0967C10.218 21.9507 9.71695 21.5883 9.39706 21.084C9.24423 20.8425 9.14506 20.5439 8.94673 19.9477Z" stroke="#2B2D2E" stroke-width="1.4" stroke-linecap="round" stroke-linejoin="round"/>
</g>
</svg>
