<svg width="30" height="30" viewBox="0 0 30 30" fill="none" xmlns="http://www.w3.org/2000/svg">
<path d="M25 12.5C16.7375 11.365 11.0213 16.8625 11.5 25M8.125 10C8.125 10.663 8.38839 11.2989 8.85723 11.7678C9.32607 12.2366 9.96196 12.5 10.625 12.5C11.288 12.5 11.9239 12.2366 12.3928 11.7678C12.8616 11.2989 13.125 10.663 13.125 10C13.125 9.33696 12.8616 8.70107 12.3928 8.23223C11.9239 7.76339 11.288 7.5 10.625 7.5C9.96196 7.5 9.32607 7.76339 8.85723 8.23223C8.38839 8.70107 8.125 9.33696 8.125 10Z" stroke="#2A2B2D" stroke-opacity="0.5" stroke-width="1.5" stroke-linecap="round" stroke-linejoin="round"/>
<path d="M3.75 16.3321C7.225 15.8508 10.3437 17.5296 12.03 20.2071" stroke="#2A2B2D" stroke-opacity="0.5" stroke-width="1.5" stroke-linecap="round" stroke-linejoin="round"/>
<path d="M3.75049 11.75C3.75049 8.95 3.75049 7.55 4.29549 6.48C4.77485 5.53923 5.53972 4.77436 6.48049 4.295C7.55049 3.75 8.95049 3.75 11.7505 3.75H18.2505C21.0505 3.75 22.4505 3.75 23.5205 4.295C24.4613 4.77436 25.2261 5.53923 25.7055 6.48C26.2505 7.55 26.2505 8.95 26.2505 11.75V18.25C26.2505 21.05 26.2505 22.45 25.7055 23.52C25.2261 24.4608 24.4613 25.2256 23.5205 25.705C22.4505 26.25 21.0505 26.25 18.2505 26.25H11.7505C8.95049 26.25 7.55049 26.25 6.48049 25.705C5.53972 25.2256 4.77485 24.4608 4.29549 23.52C3.75049 22.45 3.75049 21.05 3.75049 18.25V11.75Z" stroke="#2A2B2D" stroke-opacity="0.5" stroke-width="1.5" stroke-linecap="round" stroke-linejoin="round"/>
</svg>
