<svg width="20" height="22" viewBox="0 0 20 22" fill="none" xmlns="http://www.w3.org/2000/svg">
<path d="M17 9.5V9C17 5.22876 17 3.34315 15.8284 2.17157C14.6569 1 12.7712 1 9 1C5.22876 1 3.34315 1 2.17157 2.17157C1 3.34315 1 5.22876 1 9V15C1 16.8638 1 17.7956 1.30448 18.5307C1.71046 19.5108 2.48915 20.2895 3.46927 20.6955C4.20435 21 5.13623 21 7 21" stroke="#39393C" stroke-width="1.5" stroke-linecap="round" stroke-linejoin="round"/>
<path d="M13.25 18H12.5C12.5 18.4142 12.8358 18.75 13.25 18.75V18ZM15.75 18V18.75C16.1642 18.75 16.5 18.4142 16.5 18H15.75ZM12.5 14H13.25C13.25 13.3096 13.8096 12.75 14.5 12.75V12V11.25C12.9812 11.25 11.75 12.4812 11.75 14H12.5ZM14.5 12V12.75C15.1904 12.75 15.75 13.3096 15.75 14H16.5H17.25C17.25 12.4812 16.0188 11.25 14.5 11.25V12ZM13.25 18V18.75H15.75V18V17.25H13.25V18ZM13.25 18H14C14 16.8951 13.7903 16.098 13.5917 15.4538C13.3849 14.7825 13.25 14.4228 13.25 14H12.5H11.75C11.75 14.7097 11.9901 15.35 12.1583 15.8956C12.3347 16.4683 12.5 17.1049 12.5 18H13.25ZM15.75 18H16.5C16.5 17.1049 16.6653 16.4683 16.8417 15.8956C17.0099 15.35 17.25 14.7097 17.25 14H16.5H15.75C15.75 14.4228 15.6151 14.7825 15.4083 15.4538C15.2097 16.098 15 16.8951 15 18H15.75Z" fill="#39393C"/>
<path d="M19 21H10V19.7543C10 19.3078 10.2664 18.9154 10.6528 18.7928L12.9076 18.077C13.0684 18.0259 13.2348 18 13.4021 18H15.5979C15.7652 18 15.9316 18.0259 16.0924 18.077L18.3472 18.7928C18.7336 18.9154 19 19.3078 19 19.7543V21Z" stroke="#39393C" stroke-width="1.5" stroke-linejoin="round"/>
<path d="M5 6H13M5 10H9" stroke="#39393C" stroke-width="1.5" stroke-linecap="round"/>
</svg>
