<svg width="172" height="137" viewBox="0 0 172 137" fill="none" xmlns="http://www.w3.org/2000/svg">
<path d="M40.4005 15.8102C35.8524 19.2081 34.9707 24.8482 40.1636 28.0912C42.6015 29.6147 45.4963 29.3881 48.2072 29.0522C50.6552 28.7491 53.1711 28.7491 53.9618 31.4315C55.1843 35.5818 47.3186 35.2866 44.5267 35.5291C44.0329 35.5719 42.4186 36.4027 43.6891 36.2924C46.6748 36.036 49.5336 36.69 52.3125 35.2012C54.0218 34.2848 57.8172 31.5031 55.0953 29.2957C51.4578 26.349 46.1581 29.4527 41.9848 27.4402C36.5431 24.8135 38.1254 18.6645 42.1487 15.6611C42.5566 15.359 40.7663 15.5389 40.4005 15.8102Z" fill="black"/>
<path d="M51.6559 12.8825C49.032 12.2564 46.1682 13.1668 43.7213 14.0881C42.4338 14.5741 43.6573 14.7907 44.389 14.5154C46.1722 13.8416 48.1494 13.1628 50.0696 13.6229C50.5154 13.7293 52.2027 13.0127 51.6559 12.8825Z" fill="black"/>
<path d="M43.013 36.1734C43.5578 37.8739 43.6997 39.6539 44.0876 41.3911C44.1995 41.8881 46.1397 41.407 46.0188 40.8763C45.6309 39.1391 45.492 37.3591 44.9432 35.6586C44.7743 35.1388 42.8561 35.6924 43.013 36.1734Z" fill="black"/>
<path d="M57.259 37.4338C62.7497 33.7009 62.7267 25.9946 56.0095 23.5488C53.5236 22.6444 50.5058 23.5348 47.9589 23.6869C45.8048 23.8151 43.9906 23.0091 44.5773 20.6467C44.9412 19.1728 49.0914 19.2702 50.4878 18.9949C51.2665 18.8419 52.1861 17.9763 50.8357 18.2416C48.4487 18.7137 46.0677 18.506 43.8676 19.7036C41.9634 20.7401 42.0973 23.2307 43.9776 24.1312C46.0987 25.1459 49.1594 24.2782 51.3665 24.0864C59.56 23.3699 61.93 33.1593 55.7686 37.3444C54.958 37.898 56.9001 37.6763 57.259 37.4338Z" fill="black"/>
<path d="M45.5127 41.1176C48.1496 40.566 50.7815 40.0552 53.3464 39.2203C54.6539 38.795 53.4184 38.4958 52.6667 38.7403C50.4436 39.4648 48.1436 39.8852 45.8586 40.3633C45.0859 40.5253 44.1653 41.3979 45.5127 41.1176Z" fill="black"/>
<path d="M50.0348 12.6656C50.2207 14.4188 51.0674 16.48 50.1537 18.1417C49.9238 18.5631 51.7751 18.4001 52.0729 17.8585C53.0265 16.1252 52.1549 13.9725 51.967 12.1518C51.914 11.634 49.9698 12.0335 50.0348 12.6656Z" fill="black"/>
<path d="M51.9529 39.2757C52.5187 40.3321 53.1244 41.3528 53.3473 42.5425C53.4573 43.1189 54.8467 42.6279 55.0776 42.4043C56.0422 41.4651 57.3526 41.0477 58.4972 40.3719C58.7241 40.2377 59.1129 39.869 58.6851 39.6941C58.2753 39.5291 57.6895 39.6782 57.3247 39.8939C56.0572 40.6452 54.6238 41.1183 53.5502 42.1628C54.127 42.1181 54.7018 42.0714 55.2785 42.0267C55.0526 40.837 54.4509 39.8153 53.8861 38.7599C53.5602 38.1556 51.702 38.8056 51.9529 39.2757Z" fill="black"/>
<path d="M55.3882 37.7578C55.903 38.7129 56.4838 39.6312 56.9946 40.5863C57.3544 41.2621 59.2296 40.6409 58.9268 40.0715C58.416 39.1164 57.8332 38.2 57.3204 37.243C56.9596 36.5681 55.0864 37.1913 55.3882 37.7578Z" fill="black"/>
<path d="M37.685 14.0081C38.3027 14.8698 38.9845 15.6858 39.5332 16.5941C39.8521 17.1258 41.6703 16.4212 41.4644 16.0793C40.8807 15.1113 40.153 14.2417 39.4982 13.3234C39.2024 12.9109 37.3401 13.5241 37.685 14.0081Z" fill="black"/>
<path d="M39.3297 13.8742C40.3183 12.937 41.5038 12.29 42.7053 11.6628C42.2535 11.6042 41.8017 11.5446 41.3489 11.4839C41.9047 12.5494 42.4414 13.6207 43.1581 14.5917C43.576 15.1602 45.4382 14.4903 44.9454 13.8195C44.2867 12.927 43.7909 11.9501 43.2801 10.9701C43.0432 10.5199 42.3115 10.5895 41.9207 10.7932C40.4443 11.5635 38.9849 12.3466 37.7674 13.4995C36.9327 14.2876 38.837 14.3423 39.3297 13.8742Z" fill="black"/>
<path d="M114.693 21.9398C110.284 19.4045 104.343 19.7951 102.049 24.8577C100.321 28.6642 102.646 32.3951 104.403 35.6509C105.921 38.4615 104.573 41.8367 100.984 39.2069C98.6957 37.5293 98.3248 34.6919 97.0974 32.3533C96.8505 31.8842 95.0132 32.577 95.1652 32.8682C96.9164 36.2085 97.3563 39.0429 100.919 40.972C102.24 41.6866 104.152 41.5385 105.422 40.7504C108.07 39.1105 106.945 36.2701 105.758 34.0707C104.756 32.2172 103.854 30.6409 103.483 28.5389C102.583 23.4246 107.546 19.5307 112.872 22.5918C113.354 22.868 114.935 22.0779 114.693 21.9398Z" fill="black"/>
<path d="M120.739 29.8594C120.385 27.5457 118.662 25.5908 117.096 23.945C116.76 23.5922 114.984 24.2889 115.277 24.597C116.807 26.204 118.461 28.1122 118.808 30.3742C118.868 30.7578 120.815 30.3444 120.739 29.8594Z" fill="black"/>
<path d="M95.3295 32.4261C93.963 33.5869 92.3587 34.3909 90.8993 35.4176C90.5865 35.6332 90.6534 35.8837 91.0343 35.9184C91.4851 35.9592 92.0249 35.8161 92.3987 35.5537C93.8601 34.5291 95.4644 33.723 96.8288 32.5642C97.6155 31.8983 95.6943 32.117 95.3295 32.4261Z" fill="black"/>
<path d="M98.6166 44.9046C103.492 48.0203 109.512 46.6299 112.029 41.3138C113.718 37.7519 111.058 34.2485 109.495 31.1885C108.828 29.8786 108.215 25.2055 110.966 27.6752C112.249 28.8261 112.804 30.8396 113.745 32.2519C114.076 32.7468 115.851 31.9995 115.676 31.7371C114.117 29.3995 111.49 23.3053 107.673 26.8712C105.759 28.6562 107.257 31.1994 108.306 33.0937C109.681 35.5843 110.837 37.6724 110.445 40.6559C109.821 45.4075 104.055 46.5514 100.433 44.2377C99.959 43.9346 98.3157 44.7118 98.6166 44.9046Z" fill="black"/>
<path d="M91.2917 36.1705C92.7331 38.2595 94.1285 40.3734 95.7938 42.2926C96.1207 42.6692 97.9349 42.0034 97.6091 41.6267C95.9837 39.7553 94.6263 37.692 93.2209 35.6556C92.883 35.1627 91.1148 35.918 91.2917 36.1705Z" fill="black"/>
<path d="M120.03 29.7041C118.925 30.3004 117.384 31.8488 116.068 31.7057C115.609 31.655 115.069 31.7872 114.701 32.0684C114.397 32.299 114.462 32.5882 114.853 32.6309C117.318 32.8993 119.167 31.2197 121.191 30.1304C121.406 30.0141 121.816 29.6514 121.388 29.4953C120.971 29.3403 120.404 29.5023 120.03 29.7041Z" fill="black"/>
<path d="M95.7408 41.9053C95.0691 42.7143 94.4393 43.6108 93.5457 44.1931C93.3258 44.3373 92.927 44.6861 93.3578 44.869C94.6183 45.4027 95.5269 46.4681 96.6104 47.2681C97.1242 47.6488 98.8755 46.8895 98.4117 46.5456C97.2442 45.6839 96.2696 44.5678 94.9091 43.9934C94.8462 44.219 94.7842 44.4436 94.7182 44.6692C95.8597 43.9278 96.6644 42.928 97.523 41.8914C97.8149 41.5366 97.2752 41.3984 97.0183 41.3984C96.5804 41.4014 96.0277 41.5535 95.7408 41.9053Z" fill="black"/>
<path d="M98.4607 44.4331C97.767 45.2699 97.1413 46.1564 96.4476 46.9932C96.1427 47.3619 96.7045 47.5766 96.9783 47.5856C97.4521 47.6034 97.9499 47.4206 98.2498 47.0558C98.9425 46.217 99.5703 45.3325 100.261 44.4937C100.566 44.127 100.006 43.9113 99.7322 43.9014C99.2594 43.8855 98.7626 44.0663 98.4607 44.4331Z" fill="black"/>
<path d="M113.723 19.1626C113.164 20.0501 112.674 20.9833 112.048 21.8281C111.792 22.172 112.27 22.2346 112.528 22.2217C112.91 22.2018 113.562 22.0776 113.812 21.7416C114.494 20.8263 115.028 19.8176 115.636 18.8535C115.844 18.5216 114.929 18.5842 114.843 18.5971C114.45 18.6617 113.947 18.8058 113.723 19.1626Z" fill="black"/>
<path d="M113.879 19.465C115.224 20.0574 116.353 20.9528 117.478 21.8801C117.516 21.6883 117.553 21.4974 117.59 21.3056C116.806 22.2379 116 23.1482 115.367 24.1898C114.874 25.0028 116.826 24.8517 117.177 24.2733C117.742 23.3361 118.45 22.5161 119.153 21.6803C119.269 21.5422 119.471 21.2768 119.265 21.1059C118.059 20.112 116.847 19.1281 115.404 18.495C114.97 18.3032 114.425 18.4096 114.033 18.658C113.777 18.821 113.443 19.2752 113.879 19.465Z" fill="black"/>
<path d="M30.2111 39.8337C24.9663 38.9731 19.1607 41.0601 19.2587 47.1534C19.3227 51.098 22.6313 53.4525 25.3032 55.7661C26.9815 57.2201 28.7997 61.7292 24.2816 61.0266C21.1429 60.5396 19.6305 57.6525 17.4944 55.7562C17.1126 55.4163 15.3853 56.1498 15.6752 56.4062C18.636 59.0379 23.7268 64.8271 28.146 60.803C30.1141 59.0111 28.5898 56.5831 27.1254 55.1142C25.3451 53.3282 23.5089 52.2618 22.1685 50.0108C19.6275 45.7442 21.7177 39.4412 28.6248 40.5732C29.0756 40.6457 30.7359 39.9182 30.2111 39.8337Z" fill="black"/>
<path d="M38.7807 45.1842C37.6352 43.1329 35.3421 41.8936 33.29 40.9057C32.9292 40.7328 32.3964 40.8938 32.0465 41.018C31.9925 41.0379 31.1549 41.4066 31.4718 41.5576C33.4539 42.5127 35.74 43.7123 36.8515 45.696C37.1114 46.1701 38.9346 45.4575 38.7807 45.1842Z" fill="black"/>
<path d="M15.5377 56.147C14.6971 57.6726 13.5096 58.9537 12.53 60.3908C12.1222 60.993 14.0144 60.7168 14.2962 60.3053C15.3218 58.7937 16.5693 57.444 17.4519 55.8389C17.6418 55.4971 16.7622 55.5676 16.6622 55.5825C16.2864 55.6441 15.7376 55.7863 15.5377 56.147Z" fill="black"/>
<path d="M23.2193 66.4607C28.805 67.5967 34.0068 65.0633 34.6765 59.0396C35.0943 55.2799 31.6028 52.842 29.1138 50.7022C28.664 50.3087 28.2422 49.8873 27.8454 49.439C27.9693 49.5702 24.4158 44.0732 28.807 46.0997C30.3353 46.8063 31.4858 48.3299 32.8363 49.3088C33.2851 49.6328 34.9664 48.8706 34.6515 48.643C32.9402 47.4046 27.1287 41.9305 25.1465 46.5082C24.1579 48.7851 26.362 50.5631 27.9423 51.9247C29.4877 53.2514 30.8891 54.4202 32.0086 56.1734C34.8324 60.589 30.5622 66.8652 24.7966 65.6945C24.3308 65.599 22.6455 66.3444 23.2193 66.4607Z" fill="black"/>
<path d="M13.2261 60.867C15.2882 62.2961 17.3194 63.765 19.5334 64.9626C20.0362 65.2339 21.6286 64.4458 21.3487 64.2947C19.1366 63.0991 17.1045 61.6292 15.0413 60.2011C14.5815 59.8831 12.9142 60.6513 13.2261 60.867Z" fill="black"/>
<path d="M37.6361 44.9865C37.0944 45.6017 36.6346 46.2795 36.1328 46.9255C35.7029 47.4771 35.1192 48.3099 34.3995 48.4819C34.1746 48.5346 33.4459 48.781 33.5419 49.1358C33.6398 49.4986 34.3905 49.3296 34.6124 49.276C36.9344 48.7244 37.965 46.5886 39.4114 44.9428C39.7143 44.5989 39.1545 44.4846 38.9196 44.4926C38.4838 44.5025 37.934 44.6486 37.6361 44.9865Z" fill="black"/>
<path d="M19.3929 64.7278C19.021 65.8111 18.7171 66.9182 18.0274 67.8495C17.7505 68.2202 18.2583 68.3305 18.5292 68.3404C19.7987 68.3911 20.9772 69.066 22.1827 69.4098C22.6325 69.538 23.1383 69.4386 23.5421 69.2101C23.738 69.1017 24.1898 68.6644 23.731 68.5342C22.2407 68.1109 20.8802 67.4062 19.3039 67.3446C19.4718 67.5076 19.6398 67.6706 19.8077 67.8356C20.5594 66.8228 20.9122 65.6362 21.316 64.4605C21.515 63.8761 19.5948 64.1335 19.3929 64.7278Z" fill="black"/>
<path d="M22.8541 66.1557C22.5043 67.1803 22.2324 68.2288 21.8805 69.2555C21.6486 69.9422 23.5878 69.6888 23.8157 69.0249C24.1636 68.0003 24.4375 66.9518 24.7873 65.9251C25.0222 65.2374 23.078 65.4918 22.8541 66.1557Z" fill="black"/>
<path d="M28.1464 36.9934C27.9304 38.0648 27.7935 39.1501 27.4956 40.2066C27.3557 40.7065 29.2589 40.4312 29.4078 39.8975C29.7077 38.843 29.8456 37.7587 30.0576 36.6873C30.1675 36.1427 28.2493 36.4687 28.1464 36.9934Z" fill="black"/>
<path d="M28.6881 37.4076C30.1295 37.4832 31.495 37.9533 32.8524 38.4194C32.7225 38.2723 32.5935 38.1242 32.4676 37.9771C32.0847 39.0644 31.6829 40.1397 31.477 41.2767C31.329 42.0748 33.2862 41.7577 33.4122 41.0571C33.6211 39.9191 34.0209 38.8438 34.4038 37.7575C34.4917 37.509 34.1908 37.3749 34.0189 37.3172C32.5165 36.8024 31.0172 36.3293 29.4198 36.2458C28.981 36.225 28.3963 36.3959 28.1484 36.7855C27.9015 37.1781 28.3593 37.3908 28.6881 37.4076Z" fill="black"/>
<path d="M125.659 49.5606C122.571 56.1081 126.874 61.603 133.942 60.3379C136.74 59.837 138.902 58.1325 141.227 56.6229C145.164 54.0647 145.609 58.6762 144.689 60.7652C143.431 63.6225 140.195 64.4186 137.756 65.9621C136.949 66.4719 138.892 66.2274 139.232 66.0098C142.498 63.9446 145.339 63.2717 147.008 59.4802C148.013 57.1973 146.303 55.2742 144.006 55.1967C141.638 55.1162 139.577 56.6497 137.745 57.9159C130.406 62.9805 124.202 56.3456 127.564 49.2217C127.702 48.9275 125.889 49.0736 125.659 49.5606Z" fill="black"/>
<path d="M133.886 42.4884C131.293 43.1076 129.265 44.985 127.54 46.9121C127.259 47.2261 127.786 47.238 127.993 47.2212C128.382 47.1864 129.01 47.0741 129.285 46.763C130.538 45.3636 132.139 43.529 134.042 43.0728C134.203 43.0361 135.005 42.8105 134.93 42.5232C134.851 42.23 134.046 42.4497 133.886 42.4884Z" fill="black"/>
<path d="M137.477 66.3894C138.758 67.6396 139.699 69.1632 140.855 70.5198C141.198 70.9253 143.029 70.2634 142.664 69.836C141.511 68.4774 140.569 66.9539 139.29 65.7036C138.893 65.318 137.104 66.0246 137.477 66.3894Z" fill="black"/>
<path d="M151.141 61.4348C154.425 55.115 149.927 48.9829 142.963 49.8794C140.676 50.1745 138.574 51.7229 136.736 52.9831C132.947 55.5841 130.434 52.4723 133.842 49.8227C134.898 49.0018 136.107 48.4045 137.157 47.5726C137.596 47.2248 135.775 47.4017 135.403 47.6949C133.961 48.8338 130.41 50.1566 130.162 52.3262C129.919 54.4322 131.462 55.587 133.442 55.2491C135.684 54.8655 137.546 53.5327 139.38 52.2795C146.704 47.2755 152.651 55.1795 149.234 61.7578C149.071 62.0759 150.881 61.9338 151.141 61.4348Z" fill="black"/>
<path d="M143.014 69.4798C144.956 67.8936 146.931 66.3511 148.691 64.5572C149.123 64.1189 147.27 64.3376 146.938 64.6805C145.18 66.4734 143.203 68.0148 141.26 69.603C140.902 69.8942 141.571 69.9578 141.724 69.9489C142.179 69.9151 142.659 69.7719 143.014 69.4798Z" fill="black"/>
<path d="M132.793 42.3257C133.77 43.8025 135.479 45.2337 135.427 47.1379C135.415 47.598 137.339 47.2899 137.358 46.6231C137.411 44.6622 135.601 43.1347 134.598 41.619C134.299 41.1648 132.421 41.7651 132.793 42.3257Z" fill="black"/>
<path d="M146.855 65.053C147.845 65.7288 148.859 66.356 149.609 67.3091C149.962 67.7593 151.315 67.2882 151.471 66.8141C151.897 65.5152 152.88 64.5273 153.593 63.3824C154.035 62.6698 152.11 62.9123 151.809 63.3963C151.043 64.6247 150.005 65.6891 149.548 67.0844C150.167 66.9195 150.788 66.7525 151.408 66.5875C150.658 65.6344 149.645 65.0073 148.656 64.3305C148.127 63.9697 146.393 64.739 146.855 65.053Z" fill="black"/>
<path d="M149.329 62.244C150.228 62.8582 151.169 63.4029 152.066 64.0171C152.605 64.3858 154.385 63.6046 153.596 63.067C152.7 62.4538 151.758 61.9061 150.861 61.2949C150.321 60.9262 148.542 61.7044 149.329 62.244Z" fill="black"/>
<path d="M122.364 49.1228C123.34 49.6197 124.356 50.0451 125.296 50.6175C125.649 50.8332 126.197 50.6831 126.553 50.5499C126.648 50.5132 127.445 50.1385 127.108 49.9328C126.169 49.3603 125.154 48.9349 124.175 48.438C123.797 48.2462 123.299 48.3645 122.921 48.5056C122.844 48.5344 122.012 48.9439 122.364 49.1228Z" fill="black"/>
<path d="M124.211 48.7117C124.688 47.3332 125.517 46.1396 126.347 44.9539C125.79 45.101 125.234 45.2491 124.68 45.3982C125.626 46.0581 126.561 46.7319 127.604 47.2408C128.211 47.538 129.972 46.6813 129.127 46.2698C128.085 45.7609 127.152 45.0861 126.204 44.4262C125.737 44.1002 124.828 44.455 124.536 44.8705C123.64 46.1535 122.787 47.4425 122.273 48.9293C122.028 49.6429 123.975 49.3945 124.211 48.7117Z" fill="black"/>
<path d="M82.3761 65.0803C86.4984 65.6239 90.4468 66.9666 94.1362 68.8559C94.696 69.1412 96.4712 68.3381 95.6756 67.9277C91.8842 65.9887 87.7959 64.5983 83.5636 64.0398C82.9569 63.9602 81.2866 64.9372 82.3761 65.0803Z" fill="black"/>
<path d="M75.1273 110.627C74.2916 114.959 67.9733 124.85 72.7762 128.038C76.3547 130.409 82.6181 131.112 84.9861 134.882C86.1246 136.7 79.3385 134.812 78.8887 134.649C76.5736 133.81 74.2216 133.085 71.9186 132.213C67.4145 130.511 66.109 128.962 66.3869 124.414C66.6818 119.591 67.3885 114.789 67.8623 109.983C68.9448 99.0386 65.9771 88.2692 66.7018 77.4164C66.7258 77.0278 64.8106 77.2902 64.7706 77.9312C64.3108 84.7907 65.7212 91.7815 66.148 98.6271C66.5479 105.071 65.8521 111.384 65.1444 117.775C64.7726 121.16 63.5471 125.947 64.6197 129.291C65.6112 132.401 72.5383 133.843 75.0623 134.692C78.042 135.696 81.6575 137.653 84.9212 136.783C88.0388 135.952 86.8373 133.567 84.6383 132.223C81.2617 130.158 72.5154 128.803 73.0371 123.995C73.5509 119.27 76.1438 114.969 77.0425 110.326C77.1514 109.759 75.2282 110.091 75.1273 110.627Z" fill="black"/>
<path d="M61.1057 71.1848C62.728 70.0508 64.7182 69.3352 66.4665 68.3891C68.5816 67.2501 70.7867 66.145 73.1757 65.7275C74.0423 65.5785 74.812 64.5508 73.4715 64.7844C71.0835 65.1998 68.9104 66.1141 66.7454 67.1756C64.3604 68.3443 61.7585 69.4346 59.5824 70.9572C58.7167 71.5594 60.6659 71.4919 61.1057 71.1848Z" fill="black"/>
<path d="M86.3535 48.0456C83.4457 42.7692 74.9862 42.3638 70.6491 46.0967C66.125 49.9945 66.5648 57.4931 71.0969 61.2449C74.7094 64.2324 80.367 63.3061 84.0844 61.1386C89.4202 58.0248 89.2233 51.536 85.6408 47.178C85.13 46.5568 83.2838 47.2853 83.8655 47.9929C86.4984 51.1961 87.47 55.5273 84.6042 58.9044C82.2472 61.6862 77.985 62.3501 74.6504 61.3035C70.4841 59.9996 69.1107 55.0979 69.5215 51.2309C70.2932 43.9539 81.3226 42.9541 84.5782 48.8605C84.9551 49.5443 86.8133 48.8784 86.3535 48.0456Z" fill="black"/>
<path d="M94.1127 68.8702C97.1164 69.9982 100.232 70.53 103.373 71.1451C104.324 71.332 105.36 71.6808 106.314 71.2485C107.53 70.6989 108.821 69.4357 109.818 68.5949C112.371 66.4403 115.49 61.0029 119.164 60.9801C120 60.9741 121.172 59.7069 119.867 59.7149C116.539 59.7358 114.94 61.1063 112.861 63.5541C110.79 65.9861 108.443 67.9569 105.92 69.9078C104.272 71.1849 96.9965 68.3395 95.2532 67.6856C94.5295 67.4103 92.9932 68.4498 94.1127 68.8702Z" fill="black"/>
<path d="M93.2623 76.2893C98.762 77.636 104.714 77.5217 110.225 76.3579C110.691 76.2555 111.552 75.4674 110.661 75.2676C110.524 75.2378 110.389 75.207 110.252 75.1762C109.577 75.0251 107.965 76.0399 109.089 76.2903C109.227 76.3211 109.363 76.3509 109.497 76.3817C109.644 76.019 109.79 75.6562 109.937 75.2945C104.915 76.3569 99.4347 76.3986 94.4258 75.1742C93.7501 75.0102 92.1388 76.016 93.2623 76.2893Z" fill="black"/>
<path d="M72.8122 65.332C71.8446 66.8695 70.9829 68.5372 70.679 70.342C70.5861 70.9045 72.5063 70.5577 72.5932 70.0349C72.8951 68.2321 73.7578 66.5624 74.7263 65.0249C74.9383 64.691 74.0196 64.7516 73.9347 64.7645C73.5368 64.8272 73.0371 64.9723 72.8122 65.332Z" fill="black"/>
<path d="M72.0603 70.5698C73.3458 70.0222 74.4393 69.1923 75.7988 68.7789C75.9807 68.7242 76.7604 68.5105 76.6744 68.1905C76.5884 67.8765 75.8008 68.0603 75.6188 68.115C74.9251 68.3257 74.2484 68.5672 73.5857 68.8614C72.819 69.2052 72.1383 69.7409 71.3756 70.0669C71.2677 70.1136 70.503 70.4297 70.8108 70.6553C71.1107 70.8759 71.7584 70.698 72.0603 70.5698Z" fill="black"/>
<path d="M75.292 68.4924C75.4689 72.1279 75.219 76.6967 73.9845 80.1791C73.8056 80.684 75.7048 80.4415 75.9017 79.8859C77.1612 76.326 77.4061 71.7294 77.2212 67.9796C77.1992 67.5065 75.259 67.8614 75.292 68.4924Z" fill="black"/>
<path d="M74.1956 80.0896C75.7069 80.8916 77.3912 81.3865 78.6957 82.5235C79.0765 82.8564 80.224 82.5116 80.4849 82.1429C81.5825 80.5865 83.3267 79.8819 84.8701 78.8542C85.7137 78.2917 83.7636 78.4308 83.3647 78.6972C81.7124 79.7994 79.8922 80.5468 78.7187 82.2144C79.3124 82.0862 79.9102 81.96 80.5059 81.8318C79.1905 80.6849 77.5252 80.2029 76.0038 79.3959C75.472 79.1146 73.8447 79.9027 74.1956 80.0896Z" fill="black"/>
<path d="M78.7269 68.189C80.2643 71.592 80.6531 75.8635 83.0151 78.8798C83.309 79.2575 85.1442 78.6155 84.8324 78.2179C83.7888 76.8822 83.1981 74.8408 82.5533 73.2865C81.8006 71.4618 81.4688 69.4721 80.6581 67.6752C80.4382 67.1852 78.563 67.8292 78.7269 68.189Z" fill="black"/>
<path d="M79.0333 68.2601C80.8246 68.1965 82.9377 68.7262 84.564 69.4676C84.9489 69.6425 85.4366 69.5223 85.8135 69.3802C85.8755 69.3593 86.7221 68.9508 86.3792 68.7958C84.4001 67.8914 82.0361 67.3517 79.855 67.4292C79.3072 67.4481 77.7459 68.3048 79.0333 68.2601Z" fill="black"/>
<path d="M82.0815 64.8904C83.225 66.3176 84.1576 67.8739 85.0012 69.4929C85.2911 70.0495 87.1463 69.3876 86.9314 68.9781C86.0558 67.2955 85.0802 65.6765 83.8877 64.1947C83.5468 63.7703 81.6976 64.4163 82.0815 64.8904Z" fill="black"/>
<path d="M30.3299 75.9203C34.4531 79.2418 41.983 80.3658 47.0679 80.6312C52.8414 80.9323 59.4077 79.8659 64.9714 78.4268C66.1259 78.1267 65.882 77.2252 64.7275 77.5234C59.6396 78.8422 53.7261 79.5807 48.4643 79.6234C45.4615 79.6483 42.1259 78.4954 39.1602 78.0044C36.5533 77.5691 34.2182 76.8665 32.1261 75.1839C31.6143 74.7734 29.8361 75.5208 30.3299 75.9203Z" fill="black"/>
<path d="M32.2174 75.6789C37.4162 72.2531 44.8571 77.1875 50.2429 75.7504C53.6384 74.846 57.062 73.2718 60.2227 71.7701C61.4272 71.1976 60.3306 70.4423 59.429 70.8696C57.2659 71.8983 55.0459 72.7758 52.8098 73.6276C50.1009 74.6592 48.8045 74.4584 45.8617 74.1593C41.5335 73.719 34.8943 72.4399 30.9929 75.009C29.8974 75.7315 31.5467 76.1191 32.2174 75.6789Z" fill="black"/>
<path d="M118.825 60.4859C118.011 63.2439 116.901 65.6917 115.296 68.068C113.479 70.7584 111.081 72.8067 109.037 75.3022C108.279 76.2265 110.132 76.3657 110.624 75.7644C112.753 73.1684 115.252 71.0247 117.121 68.2141C118.774 65.7315 119.927 63.1594 120.772 60.3021C121.012 59.4821 119.049 59.7326 118.825 60.4859Z" fill="black"/>
<path d="M69.3996 49.2728C68.3041 54.5272 72.3344 58.3297 77.4772 58.6776C79.9582 58.8445 83.6586 57.5157 84.7022 55.052C85.8657 52.3 85.4279 49.2787 84.3773 46.5367C84.2863 46.2982 84.1784 46.649 84.1854 46.7444C84.2724 48.1597 84.5942 49.4795 84.8301 50.8808C85.5008 54.883 82.2602 57.0009 79.0356 57.6927C74.1986 58.7312 68.6649 54.9387 69.6075 49.559C69.6325 49.393 69.4776 48.908 69.3996 49.2728Z" fill="black"/>
<path d="M75.2682 111.575C76.1369 110.451 76.7206 109.147 77.5333 107.983C78.8247 106.135 81.1847 106.022 83.2159 106.217C87.622 106.634 89.5003 110.32 91.6434 113.544C91.7783 113.746 91.8203 113.196 91.7983 113.125C90.7228 109.378 87.811 106.374 84.0415 105.29C79.0436 103.856 76.8586 107.307 75.1513 111.231C75.1203 111.302 75.1563 111.722 75.2682 111.575Z" fill="black"/>
<path d="M70.5367 54.6886C70.2648 55.7351 69.7261 56.7289 69.6211 57.8102C69.6201 57.8391 69.6641 58.2704 69.7621 58.1581C70.0569 57.8261 70.1619 57.3471 70.2978 56.9357C70.5007 56.3234 70.6727 55.7043 70.7956 55.0722C70.8346 54.8615 70.6627 54.2026 70.5367 54.6886Z" fill="black"/>
<path d="M72.5573 56.8188C72.3444 57.3793 72.1544 57.9448 71.9225 58.5004C71.6856 59.0788 71.4337 59.6205 71.3937 60.2516C71.3907 60.3191 71.3848 60.5845 71.5027 60.5885C71.9195 60.5964 72.1494 59.6125 72.2574 59.3193C72.5083 58.6266 72.7232 57.912 72.7952 57.1746C72.8052 57.0593 72.6872 56.4729 72.5573 56.8188Z" fill="black"/>
<path d="M75.2608 57.9491C74.819 59.0443 74.0253 60.3502 74.1213 61.5617L74.2102 61.7694L74.2942 61.7903L74.3851 61.7247C74.66 61.3013 74.783 60.7955 74.9449 60.3234C75.1388 59.7609 75.3407 59.2013 75.5447 58.6428C75.6206 58.4301 75.4567 57.469 75.2608 57.9491Z" fill="black"/>
<path d="M78.0266 58.1621C77.5448 59.3458 76.8661 60.5473 76.7931 61.8423C76.7911 61.887 76.8111 62.3393 76.953 62.2329C77.3439 61.9318 77.4428 61.3325 77.6018 60.8912C77.8447 60.2154 78.0716 59.5306 78.2985 58.8469C78.3644 58.6471 78.2205 57.6861 78.0266 58.1621Z" fill="black"/>
<path d="M80.642 57.4108C80.2031 58.9284 79.1006 60.6309 79.3645 62.2578L79.5004 62.4446C79.8763 62.0988 79.9333 61.258 80.0742 60.7938C80.3641 59.8487 80.6909 58.9185 80.9158 57.9544C80.9528 57.7835 80.7659 56.9795 80.642 57.4108Z" fill="black"/>
<path d="M83.676 56.3105C83.3421 57.1275 83.1682 58.0249 82.8603 58.8588C82.5765 59.628 82.2816 60.3744 82.3106 61.2023C82.3146 61.244 82.3545 61.6038 82.4755 61.5064C83.0463 61.0442 83.1772 59.6429 83.3731 58.9611C83.609 58.1164 83.8539 57.199 83.696 56.3215L83.676 56.3105Z" fill="black"/>
<path d="M86.5562 51.0176C86.0384 53.6871 85.3747 56.3367 85.1118 59.0439C85.1038 59.1155 85.1988 59.4752 85.2567 59.2616C85.9575 56.6686 86.3423 53.9852 86.7611 51.3356C86.7881 51.1696 86.6362 50.6081 86.5562 51.0176Z" fill="black"/>
<path d="M79.1986 105.764C78.6328 107.352 77.5643 108.978 77.5313 110.696C77.5293 110.743 77.5823 111.108 77.7042 111.005C78.164 110.623 78.269 109.755 78.4579 109.212C78.7898 108.241 79.1306 107.28 79.4105 106.294C79.4575 106.139 79.3336 105.389 79.1986 105.764Z" fill="black"/>
<path d="M82.8013 105.661C82.1896 107.337 81.199 109.083 81.0161 110.867C81.0121 110.904 81.034 111.248 81.14 111.164C81.6748 110.747 81.8347 109.802 82.0466 109.196C82.3895 108.213 82.7143 107.227 83.0242 106.235C83.0772 106.065 82.9462 105.266 82.8013 105.661Z" fill="black"/>
<path d="M85.821 106.56C85.2063 107.79 84.5296 109.151 84.4006 110.531C84.3966 110.566 84.4406 111.036 84.5566 110.916C84.9034 110.549 85.0204 109.998 85.1813 109.531C85.4262 108.811 85.7051 108.101 86.022 107.41C86.1209 107.199 85.962 106.269 85.821 106.56Z" fill="black"/>
<path d="M87.7367 108.019C87.2099 108.906 86.5782 110.001 86.6002 111.052C86.6032 111.133 86.6152 111.357 86.7301 111.368C87.075 111.408 87.2809 110.576 87.3738 110.341C87.6037 109.767 87.8207 109.19 87.9556 108.584C87.9726 108.493 87.8926 107.75 87.7367 108.019Z" fill="black"/>
<path d="M89.1043 109.838C88.9993 110.115 88.7723 110.382 88.6343 110.646C88.4573 110.977 88.3543 111.297 88.3223 111.672L88.3883 111.942C88.9063 112.276 89.0703 110.169 89.1523 109.951L89.1043 109.838Z" fill="black"/>
<path d="M101.313 109.438C99.2423 107.695 97.0982 106.007 95.4009 103.885C93.6326 101.673 94.1624 96.9892 93.9105 94.2869C93.3797 88.63 92.5201 81.3281 94.3353 75.863C94.6772 74.8323 92.751 74.9158 92.4981 75.6781C91.0787 79.9546 91.5505 84.8573 91.6734 89.2929C91.7374 91.6165 91.8953 93.9123 92.1132 96.2289C92.3272 98.5108 91.9323 102.118 93.2258 104.094C95.6358 107.784 99.763 110.298 102.956 113.261C108.803 118.68 100.842 127.066 97.2321 131.767C96.7963 132.333 96.3555 132.893 95.9287 133.465C94.5802 135.272 96.0116 129.594 95.6148 130.676C96.4524 128.389 97.7049 126.221 98.7915 124.047C100.31 121.011 102.007 118.872 99.0543 116.385C92.5731 110.929 84.1516 108.989 75.7631 109.978L75.7391 110.026C75.7391 109.978 74.6456 110.647 74.9734 111.392L74.9604 111.407C79.2536 110.863 84.4964 111.182 88.6127 112.183C92.0673 113.024 95.7517 115.708 98.2537 118.152C99.831 119.692 97.2251 123.325 96.4604 124.85C95.6518 126.47 91.3586 133.07 93.4367 135.084C95.3009 136.887 97.1172 134.506 98.2537 133.034C99.9 130.899 101.502 128.742 103.028 126.515C104.41 124.497 107.154 121.122 107.353 118.605C107.699 114.25 104.364 112.008 101.313 109.438Z" fill="black"/>
<path d="M132.568 23.2119C132.568 24.0785 131.861 24.7822 130.989 24.7822C130.117 24.7822 129.41 24.0795 129.41 23.2119C129.41 22.3452 130.117 21.6426 130.989 21.6426C131.861 21.6426 132.568 22.3462 132.568 23.2119Z" fill="black"/>
<path d="M170.368 35.661C171.254 35.661 171.972 34.9468 171.972 34.0658C171.972 33.1849 171.254 32.4707 170.368 32.4707C169.482 32.4707 168.764 33.1849 168.764 34.0658C168.764 34.9468 169.482 35.661 170.368 35.661Z" fill="black"/>
<path d="M172.002 59.4395C172.002 59.9863 171.556 60.4298 171.006 60.4298C170.456 60.4298 170.01 59.9863 170.01 59.4395C170.01 58.8927 170.456 58.4492 171.006 58.4492C171.556 58.4492 172.002 58.8927 172.002 59.4395Z" fill="black"/>
<path d="M84.8495 16.4824C84.8495 17.3202 84.1668 17.998 83.3251 17.998C82.4835 17.998 81.8008 17.3192 81.8008 16.4824C81.8008 15.6456 82.4835 14.9668 83.3251 14.9668C84.1668 14.9668 84.8495 15.6456 84.8495 16.4824Z" fill="black"/>
<path d="M92.2186 9.05895C92.2186 9.72086 91.6789 10.2585 91.0131 10.2585C90.3474 10.2585 89.8066 9.72185 89.8066 9.05895C89.8066 8.39605 90.3474 7.85938 91.0131 7.85938C91.6789 7.85938 92.2186 8.39605 92.2186 9.05895Z" fill="black"/>
<path d="M138.565 14.1748C138.565 14.7813 138.07 15.2735 137.46 15.2735C136.85 15.2735 136.355 14.7813 136.355 14.1748C136.355 13.5683 136.85 13.0762 137.46 13.0762C138.071 13.0752 138.565 13.5673 138.565 14.1748Z" fill="black"/>
<path d="M143.819 37.1475C143.819 37.8292 143.262 38.3828 142.576 38.3828C141.891 38.3828 141.334 37.8302 141.334 37.1475C141.334 36.4647 141.89 35.9121 142.576 35.9121C143.262 35.9121 143.819 36.4647 143.819 37.1475Z" fill="black"/>
<path d="M54.1421 1.52854C54.1421 2.37331 53.4544 3.05708 52.6048 3.05708C51.7551 3.05708 51.0664 2.37232 51.0664 1.52854C51.0664 0.68377 51.7551 0 52.6048 0C53.4534 0 54.1421 0.684764 54.1421 1.52854Z" fill="black"/>
<path d="M75.6544 22.0313C75.6544 22.9646 74.8938 23.7209 73.9552 23.7209C73.0165 23.7209 72.2559 22.9646 72.2559 22.0313C72.2559 21.0981 73.0165 20.3418 73.9552 20.3418C74.8938 20.3428 75.6544 21.0981 75.6544 22.0313Z" fill="black"/>
<path d="M87.8547 30.2839C87.8547 30.8815 87.3677 31.3667 86.7667 31.3667C86.1647 31.3667 85.6777 30.8825 85.6777 30.2839C85.6777 29.6864 86.1647 29.2012 86.7667 29.2012C87.3667 29.2012 87.8547 29.6864 87.8547 30.2839Z" fill="black"/>
<path d="M6.60961 67.442C6.60961 68.423 5.80995 69.218 4.82336 69.218C3.83677 69.218 3.03711 68.423 3.03711 67.442C3.03711 66.4611 3.83677 65.666 4.82336 65.666C5.80995 65.666 6.60961 66.4611 6.60961 67.442Z" fill="black"/>
<path d="M3.17867 32.3341C3.17867 33.2067 2.46697 33.9143 1.58933 33.9143C0.711702 33.9143 0 33.2067 0 32.3341C0 31.4615 0.711702 30.7539 1.58933 30.7539C2.46697 30.7539 3.17867 31.4615 3.17867 32.3341Z" fill="black"/>
<path d="M42.0858 13.7067C42.0858 14.625 41.3372 15.3704 40.4125 15.3704C39.4879 15.3704 38.7402 14.626 38.7402 13.7067C38.7402 12.7874 39.4889 12.043 40.4125 12.043C41.3362 12.043 42.0858 12.7874 42.0858 13.7067Z" fill="black"/>
<path d="M11.1663 25.5085C11.1663 26.1061 10.6783 26.5913 10.0773 26.5913C9.47528 26.5913 8.98828 26.1061 8.98828 25.5085C8.98828 24.91 9.47528 24.4258 10.0773 24.4258C10.6783 24.4248 11.1663 24.91 11.1663 25.5085Z" fill="black"/>
<path d="M29.3808 18.0407C29.3808 19.0534 28.5552 19.8733 27.5366 19.8733C26.518 19.8733 25.6934 19.0524 25.6934 18.0407C25.6934 17.028 26.519 16.207 27.5366 16.207C28.5552 16.208 29.3808 17.0289 29.3808 18.0407Z" fill="black"/>
</svg>
