<svg width="85" height="84" viewBox="0 0 85 84" fill="none" xmlns="http://www.w3.org/2000/svg">
<path fill-rule="evenodd" clip-rule="evenodd" d="M31.8706 75.7938C33.0037 77.9215 32.6147 80.5561 30.8997 82.2709C28.7487 84.4217 25.2625 84.4217 23.1115 82.2709C21.3965 80.5559 21.0075 77.9217 22.1407 75.7938C22.171 75.7372 22.1693 75.6739 22.1362 75.6189C22.1033 75.564 22.0482 75.5327 21.984 75.5327H21.7805C19.7271 75.5327 17.8403 74.8975 16.455 73.8741C12.8994 71.2477 13.3526 66.8129 17.1263 64.5994C17.1756 64.5704 17.2059 64.5246 17.2129 64.4678C17.2196 64.411 17.2013 64.3592 17.1602 64.3193C16.4787 63.6573 15.943 62.8264 15.6081 61.8649L7.47887 38.5365C7.09665 37.4398 6.17259 36.7342 5.01092 36.656L1.24079 36.4018C0.508244 36.353 -0.0459503 35.7196 0.00300971 34.9871C0.051764 34.2545 0.685364 33.7003 1.41771 33.7493L5.18783 34.0035C7.4116 34.1535 9.25131 35.5552 9.98591 37.6628L12.3928 44.5696C12.4181 44.6423 12.4835 44.6888 12.5604 44.6888H41.3822C41.4429 44.6888 41.4952 44.7165 41.5291 44.7669C44.7837 49.578 50.2831 52.7641 56.507 52.8132C56.566 52.8137 56.6168 52.8402 56.6508 52.8883C56.6847 52.9367 56.6925 52.9932 56.6732 53.049L53.637 61.7618C52.7266 64.3742 50.373 66.0464 47.6065 66.0464H21.7807C17.5799 66.0464 14.9525 69.4642 18.0363 71.742C18.9785 72.438 20.3025 72.87 21.7807 72.87H48.6754C48.812 72.87 48.9373 72.8881 49.0515 72.9212C49.077 72.9286 49.1 72.9303 49.1263 72.9263C49.3849 72.8891 49.6493 72.8698 49.9181 72.8698C52.9594 72.8698 55.4253 75.3357 55.4253 78.3769C55.4253 81.4182 52.9594 83.8841 49.9181 83.8841C45.7216 83.8841 43.1263 79.395 45.0526 75.7942C45.0828 75.7376 45.0814 75.6743 45.0483 75.6191C45.0154 75.5642 44.9602 75.5329 44.896 75.5329H32.0272C31.963 75.5329 31.9081 75.564 31.8749 75.6191C31.842 75.6741 31.8406 75.7372 31.8706 75.7938ZM45.8637 11.9687V19.4651C45.8637 19.5332 45.8991 19.5914 45.9596 19.6227C46.0201 19.6539 46.0882 19.6492 46.1437 19.6101C48.1576 18.1874 50.4721 17.1619 52.9728 16.647C53.0561 16.6299 53.1145 16.5584 53.1145 16.4732V1.26103C53.1145 0.568182 52.5463 0 51.8535 0H47.1247C46.4321 0 45.8637 0.568388 45.8637 1.26103V11.9687ZM16.1224 30.3007V41.8096C16.1224 41.9073 16.202 41.9871 16.2999 41.9871H23.1957C23.2934 41.9871 23.3732 41.9075 23.3732 41.8096V28.7768C23.3732 28.679 23.2936 28.5992 23.1957 28.5992H17.3834C16.6249 28.5992 16.1224 29.4799 16.1224 30.3007ZM26.0362 25.9363V41.8096C26.0362 41.9073 26.1158 41.9871 26.2137 41.9871H33.1094C33.2071 41.9871 33.287 41.9075 33.287 41.8096V7.04366C33.287 6.43269 32.6614 6.02455 32.0259 6.02455H27.2972C26.6617 6.02455 26.0362 6.43269 26.0362 7.04366V25.9363ZM35.9499 13.4778V41.8096C35.9499 41.9073 36.0295 41.9871 36.1275 41.9871H39.7112C39.7727 41.9871 39.8256 41.9587 39.8593 41.9073C39.8933 41.8561 39.8984 41.7962 39.8741 41.7396C38.9264 39.5311 38.401 37.0983 38.401 34.5427C38.401 29.8099 40.2014 25.4975 43.1541 22.2519C43.1849 22.218 43.2003 22.1785 43.2003 22.1326V13.4778C43.2003 13.3801 43.1207 13.3003 43.0228 13.3003H36.1271C36.0298 13.3003 35.9499 13.3799 35.9499 13.4778ZM41.0642 34.5427C41.0642 43.1632 48.0527 50.1515 56.6732 50.1515C60.4462 50.1515 63.9059 48.8123 66.6042 46.5838C66.675 46.5254 66.7779 46.5301 66.8429 46.5951L73.3696 53.1218C73.4229 53.1751 73.4368 53.252 73.4056 53.3207C73.1328 53.9216 73.2424 54.6575 73.7349 55.1497L80.3826 61.7976C81.0164 62.4314 82.0532 62.4314 82.687 61.7976L83.9281 60.5565C84.5619 59.9227 84.5619 58.8859 83.9281 58.2521L77.2802 51.6045C76.7879 51.112 76.0521 51.0023 75.451 51.2751C75.3823 51.3062 75.3055 51.2924 75.2523 51.2391L68.7256 44.7124C68.6606 44.6474 68.6556 44.5448 68.7143 44.4738C70.9426 41.7752 72.2822 38.3157 72.2822 34.5427C72.2822 25.9223 65.2938 18.9337 56.6734 18.9337C48.0527 18.9337 41.0642 25.9221 41.0642 34.5427ZM46.1248 34.5427C46.1248 40.3683 50.8476 45.0911 56.6732 45.0909C62.4988 45.0909 67.2214 40.3683 67.2214 34.5425C67.2214 28.7169 62.4988 23.9943 56.6732 23.9943C50.8476 23.9941 46.1248 28.7169 46.1248 34.5427Z" fill="url(#paint0_linear_1268_12244)"/>
<defs>
<linearGradient id="paint0_linear_1268_12244" x1="0" y1="0" x2="80.0645" y2="87.839" gradientUnits="userSpaceOnUse">
<stop stop-color="#FFAE35"/>
<stop offset="0.576923" stop-color="#FF532A"/>
<stop offset="0.918269" stop-color="#FF161A"/>
</linearGradient>
</defs>
</svg>
