<svg width="85" height="85" viewBox="0 0 85 85" fill="none" xmlns="http://www.w3.org/2000/svg">
<path d="M21.0996 58.6328C26.269 62.668 32.6251 65.2791 39.5615 65.8066V73.1123L25.0557 81.3945C24.2381 81.8692 23.2356 81.8693 22.418 81.3945C21.6004 80.9461 21.0996 80.0755 21.0996 79.126V58.6328ZM63.2988 79.0996C63.2988 80.0226 62.798 80.8934 61.9805 81.3682C61.5848 81.6319 61.1095 81.7373 60.6611 81.7373C60.2129 81.7373 59.7383 81.6317 59.3428 81.3945L44.8359 73.1123V65.7803C51.7725 65.2528 58.1293 62.6682 63.2988 58.6064V79.0996ZM42.1982 2.63672C58.2078 2.63682 71.2109 15.6399 71.2109 31.6494C71.2109 47.659 58.2078 60.662 42.1982 60.6621C26.1886 60.6621 13.1855 47.659 13.1855 31.6494C13.1856 15.6398 26.1886 2.63672 42.1982 2.63672ZM71.5273 44.5469C72.2396 43.2548 73.8484 42.8065 75.1143 43.4922L78.1475 45.1543C79.4395 45.8666 79.9142 47.4754 79.2021 48.7412C78.7274 49.6114 77.8039 50.1123 76.8809 50.1123C76.459 50.1123 76.0107 50.0068 75.6152 49.7959L72.582 48.1338C71.2898 47.4216 70.8152 45.8128 71.5273 44.5469ZM9.28516 43.4912C10.5775 42.8057 12.1864 43.281 12.8721 44.5469C13.5577 45.8392 13.1096 47.4216 11.8174 48.1338L8.78418 49.7949C8.38855 50.0059 7.93958 50.1113 7.51758 50.1113C6.56824 50.1112 5.67197 49.6105 5.19727 48.7402C4.51152 47.4479 4.95958 45.8654 6.25195 45.1533L9.28516 43.4912ZM42.1455 15.0068C39.1389 15.0068 36.6068 16.8529 35.6836 19.7012L34.7607 22.5234H31.8066C28.7999 22.5234 26.2679 24.3703 25.3447 27.2188C24.4217 30.0671 25.397 33.0473 27.8232 34.8145L30.2236 36.5557L29.3008 39.377C28.3777 42.2255 29.3538 45.2065 31.7803 46.9736C34.2067 48.7404 37.3451 48.7405 39.7715 46.9736L42.1719 45.2324L44.5723 46.9736C45.7854 47.8438 47.157 48.292 48.5547 48.292C49.9524 48.2919 51.3503 47.8439 52.5635 46.9736C54.99 45.2065 55.9661 42.2255 55.043 39.377L54.1191 36.5557L56.5195 34.8145H56.4668C58.8932 33.0474 59.8692 30.0672 58.9463 27.2188C58.0232 24.3703 55.4911 22.5235 52.4844 22.5234H49.5303L48.6074 19.7012C47.6842 16.8529 45.1521 15.0069 42.1455 15.0068ZM42.2021 20.2793C42.545 20.2793 43.3358 20.3855 43.6523 21.335L45.1562 25.9766C45.4991 27.0579 46.528 27.7969 47.6621 27.7969H52.5938C53.596 27.7969 53.9394 28.5351 54.0449 28.8516C54.1504 29.1681 54.3078 29.9862 53.4902 30.5664L49.5342 33.4404C48.6111 34.1261 48.2422 35.3132 48.585 36.3945L50.0879 41.0371C50.4043 41.9865 49.7979 42.5664 49.5342 42.751C49.2704 42.9356 48.5323 43.3311 47.7412 42.751L43.7852 39.876C43.3104 39.5331 42.7824 39.375 42.2285 39.375C41.6748 39.375 41.1475 39.5333 40.6729 39.876L36.7158 42.751C35.8983 43.3311 35.1866 42.9356 34.9229 42.751C34.6591 42.54 34.0528 41.9865 34.3691 41.0371L35.8721 36.3945C36.2412 35.3132 35.8459 34.0998 34.9229 33.4404L30.9668 30.5664C30.1493 29.9599 30.3066 29.1682 30.4121 28.8516C30.5176 28.5351 30.861 27.7969 31.8633 27.7969H36.7422C37.8763 27.7969 38.9052 27.0579 39.248 25.9766L40.752 21.335C41.0684 20.3855 41.8592 20.2793 42.2021 20.2793ZM8.78223 29.0107C10.2329 29.0107 11.4199 30.1978 11.4199 31.6484C11.4199 33.099 10.2328 34.2861 8.78223 34.2861H5.27441C3.82381 34.2861 2.63674 33.099 2.63672 31.6484C2.63672 30.1978 3.8238 29.0108 5.27441 29.0107H8.78223ZM79.125 29.0107C80.5756 29.0108 81.7627 30.1978 81.7627 31.6484C81.7627 33.099 80.5756 34.2861 79.125 34.2861H75.6172C74.1666 34.2861 72.9795 33.099 72.9795 31.6484C72.9795 30.1978 74.1666 29.0107 75.6172 29.0107H79.125ZM5.19434 14.5557C5.90645 13.2633 7.48889 12.8143 8.78125 13.5L11.8145 15.1621C13.1067 15.8743 13.5812 17.4831 12.8691 18.749C12.3944 19.6193 11.4709 20.1201 10.5479 20.1201C10.126 20.12 9.6777 20.0146 9.28223 19.8037L6.24902 18.1426C4.95674 17.4305 4.48242 15.8216 5.19434 14.5557ZM75.6133 13.5C76.9056 12.8143 78.5145 13.2887 79.2002 14.5547C79.8858 15.8469 79.4375 17.4294 78.1455 18.1416L75.1123 19.8037C74.7167 20.0147 74.2677 20.1201 73.8457 20.1201C72.8963 20.12 72.0001 19.6184 71.5254 18.748C70.8397 17.4557 71.2877 15.8732 72.5801 15.1611L75.6133 13.5Z" fill="url(#paint0_linear_1268_12398)"/>
<defs>
<linearGradient id="paint0_linear_1268_12398" x1="2.63672" y1="2.63672" x2="78.1888" y2="85.0278" gradientUnits="userSpaceOnUse">
<stop stop-color="#FFAE35"/>
<stop offset="0.576923" stop-color="#FF532A"/>
<stop offset="0.918269" stop-color="#FF161A"/>
</linearGradient>
</defs>
</svg>
