<svg width="85" height="85" viewBox="0 0 85 85" fill="none" xmlns="http://www.w3.org/2000/svg">
<path d="M78.9067 49.0116C76.9955 46.7781 73.7425 46.381 71.3516 48.0898L61.8327 54.8881H55.2894C56.1664 53.8986 56.7061 52.6019 56.7209 51.1778C56.7585 47.9996 54.2026 45.4141 51.0246 45.4141H37.7281C34.8499 45.4141 32.0842 46.6357 30.1506 48.7642L23.195 56.4395C22.7603 56.9193 22.1382 57.1963 21.4936 57.1963H18.7055V52.3771C18.7055 50.2409 16.9665 48.5017 14.8305 48.5017H8.00975C5.8737 48.5017 4.13477 50.2409 4.13477 52.3771V72.5164C4.13477 74.6526 5.8737 76.3917 8.00975 76.3917H14.8303C16.9664 76.3917 18.7053 74.6526 18.7053 72.5164V70.86H52.0888C55.2742 70.86 58.3623 69.938 61.038 68.2067L77.6923 57.4064C80.5481 55.5549 81.1328 51.6049 78.9067 49.0116ZM76.6731 55.8324L60.0188 66.6403C57.6503 68.1694 54.9071 68.9862 52.0888 68.9862H18.7055V59.07H21.4936C22.6629 59.07 23.7947 58.5757 24.5817 57.6987L31.5447 50.0234C33.1186 48.2846 35.3746 47.2877 37.7281 47.2877H51.0246C53.1532 47.2877 54.8771 49.0264 54.8471 51.1549C54.8247 53.0364 53.438 54.5954 51.6393 54.8878C36.2516 54.8428 49.2484 54.88 40.4564 54.8878C39.9393 54.8878 39.5195 55.3072 39.5195 55.8248C39.5195 56.3419 39.9392 56.7617 40.4564 56.7617H62.1326C62.3274 56.7617 62.5223 56.7017 62.6797 56.5817L72.4384 49.6113C74.035 48.4721 76.2084 48.734 77.4902 50.2331C78.9592 51.9496 78.5919 54.5957 76.6731 55.8324Z" fill="url(#paint0_linear_1268_12368)"/>
<path d="M74.9813 14.2063C74.9813 17.6241 72.2005 20.4047 68.7828 20.4047C67.4037 20.4047 66.1295 19.9476 65.0953 19.1831L56.1609 28.0423C56.903 29.0692 57.3527 30.3281 57.3527 31.6848C57.3527 35.1027 54.572 37.8833 51.1543 37.8833C47.7364 37.8833 44.9558 35.1025 44.9558 31.6848C44.9558 30.0885 45.5704 28.6344 46.5673 27.5329L40.0764 19.5502C39.1545 20.09 38.0827 20.4047 36.9434 20.4047C35.5343 20.4047 34.2377 19.9249 33.1883 19.1303L23.8868 28.1095C24.6064 29.1215 25.0336 30.3582 25.0336 31.6848C25.0336 35.1027 22.2529 37.8833 18.8352 37.8833C15.4175 37.8833 12.6367 35.1025 12.6367 31.6848C12.6367 28.2671 15.4175 25.4864 18.8352 25.4864C20.2443 25.4864 21.5409 25.9662 22.5827 26.7608L31.8918 17.7816C31.1722 16.7773 30.745 15.5407 30.745 14.2063C30.745 10.7884 33.5257 8.00781 36.9434 8.00781C40.3611 8.00781 43.1419 10.7886 43.1419 14.2063C43.1419 15.8104 42.5273 17.2643 41.5304 18.3659L48.0213 26.3487C48.9432 25.8088 50.0075 25.4864 51.1543 25.4864C52.5334 25.4864 53.8076 25.9512 54.842 26.7156L63.7762 17.8488C63.0342 16.8296 62.5844 15.5702 62.5844 14.2063C62.5844 10.7884 65.3651 8.00781 68.7828 8.00781C72.2005 8.00781 74.9813 10.7884 74.9813 14.2063Z" fill="url(#paint1_linear_1268_12368)"/>
<defs>
<linearGradient id="paint0_linear_1268_12368" x1="4.13477" y1="45.4141" x2="23.5884" y2="97.5425" gradientUnits="userSpaceOnUse">
<stop stop-color="#FFAE35"/>
<stop offset="0.576923" stop-color="#FF532A"/>
<stop offset="0.918269" stop-color="#FF161A"/>
</linearGradient>
<linearGradient id="paint1_linear_1268_12368" x1="12.6367" y1="8.00781" x2="33.7337" y2="56.0112" gradientUnits="userSpaceOnUse">
<stop stop-color="#FFAE35"/>
<stop offset="0.576923" stop-color="#FF532A"/>
<stop offset="0.918269" stop-color="#FF161A"/>
</linearGradient>
</defs>
</svg>
