<svg width="85" height="85" viewBox="0 0 85 85" fill="none" xmlns="http://www.w3.org/2000/svg">
<path d="M66.1019 47.2051H18.3028C17.5596 49.8202 15.4921 51.8878 12.877 52.6309V66.0978C15.4921 66.841 17.5596 68.9085 18.3028 71.5237H66.1019C66.8451 68.9085 68.9126 66.841 71.5278 66.0978V52.6309C68.9127 51.8878 66.8451 49.8202 66.1019 47.2051ZM37.9975 60.8815C37.9975 60.8815 32.2782 66.6007 32.2754 66.6035C31.4762 67.4028 30.0893 67.4517 29.2412 66.6035C28.403 65.7654 28.403 64.4075 29.2412 63.5693L31.3003 61.5102H22.1753C20.9906 61.5102 20.0295 60.549 20.0295 59.3644C20.0295 58.1798 20.9906 57.2186 22.1753 57.2186H31.3003L29.2412 55.1595C28.403 54.3213 28.403 52.9634 29.2412 52.1252C30.0794 51.287 31.4372 51.287 32.2754 52.1252L37.9975 57.8473C38.8356 58.6855 38.8356 60.0433 37.9975 60.8815ZM62.2295 61.5102H53.1044L55.1636 63.5693C56.0018 64.4075 56.0018 65.7654 55.1636 66.6036C54.3341 67.433 52.9581 67.4323 52.1293 66.6036L46.4073 60.8815C45.5691 60.0433 45.5691 58.6855 46.4073 57.8473L52.1293 52.1253C52.9675 51.2871 54.3254 51.2871 55.1636 52.1253C56.0018 52.9634 56.0018 54.3213 55.1636 55.1595L53.1044 57.2186H62.2295C63.4141 57.2186 64.3753 58.1798 64.3753 59.3644C64.3753 60.549 63.4141 61.5102 62.2295 61.5102Z" fill="url(#paint0_linear_1268_12445)"/>
<path d="M76.5322 34.3359H7.8678C3.52878 34.3359 0 37.8647 0 42.2037V76.5359C0 80.875 3.52878 84.4037 7.8678 84.4037H76.5322C80.8712 84.4037 84.4 80.875 84.4 76.5359V42.2037C84.4 37.8647 80.8712 34.3359 76.5322 34.3359ZM75.8169 67.9529C75.8169 69.1375 74.8558 70.0986 73.6712 70.0986C71.6987 70.0986 70.0949 71.7024 70.0949 73.6749C70.0949 74.8596 69.1338 75.8207 67.9492 75.8207H16.4508C15.2662 75.8207 14.3051 74.8596 14.3051 73.6749C14.3051 71.7024 12.7013 70.0986 10.7288 70.0986C9.54418 70.0986 8.58305 69.1375 8.58305 67.9529V50.7868C8.58305 49.6022 9.54418 48.641 10.7288 48.641C12.7013 48.641 14.3051 47.0373 14.3051 45.0648C14.3051 43.8801 15.2662 42.919 16.4508 42.919H67.9492C69.1338 42.919 70.0949 43.8801 70.0949 45.0648C70.0949 47.0373 71.6987 48.641 73.6712 48.641C74.8558 48.641 75.8169 49.6022 75.8169 50.7868V67.9529Z" fill="url(#paint1_linear_1268_12445)"/>
<path d="M15.0243 25.75C12.2206 25.75 9.8459 27.5524 8.95898 30.0415H21.0897C20.2028 27.5524 17.8281 25.75 15.0243 25.75Z" fill="url(#paint2_linear_1268_12445)"/>
<path d="M69.3857 25.75C66.5819 25.75 64.2072 27.5524 63.3203 30.0415H75.451C74.5641 27.5524 72.1894 25.75 69.3857 25.75Z" fill="url(#paint3_linear_1268_12445)"/>
<path d="M42.2006 18.5966C47.336 18.5966 51.499 14.4336 51.499 9.2983C51.499 4.16299 47.336 0 42.2006 0C37.0653 0 32.9023 4.16299 32.9023 9.2983C32.9023 14.4336 37.0653 18.5966 42.2006 18.5966Z" fill="url(#paint4_linear_1268_12445)"/>
<path d="M24.4639 27.0624L33.5619 19.7954C32.4463 18.8513 31.5021 17.7641 30.7295 16.5625L21.6602 23.801C22.8044 24.6592 23.7486 25.8035 24.4639 27.0624Z" fill="url(#paint5_linear_1268_12445)"/>
<path d="M59.9398 27.0624C60.6551 25.8035 61.5993 24.6592 62.7435 23.801L53.6742 16.5625C52.9016 17.7641 51.9575 18.8513 50.8418 19.7954L59.9398 27.0624Z" fill="url(#paint6_linear_1268_12445)"/>
<defs>
<linearGradient id="paint0_linear_1268_12445" x1="12.877" y1="47.2051" x2="28.3663" y2="87.9369" gradientUnits="userSpaceOnUse">
<stop stop-color="#FFAE35"/>
<stop offset="0.576923" stop-color="#FF532A"/>
<stop offset="0.918269" stop-color="#FF161A"/>
</linearGradient>
<linearGradient id="paint1_linear_1268_12445" x1="0" y1="34.3359" x2="40.2952" y2="108.399" gradientUnits="userSpaceOnUse">
<stop stop-color="#FFAE35"/>
<stop offset="0.576923" stop-color="#FF532A"/>
<stop offset="0.918269" stop-color="#FF161A"/>
</linearGradient>
<linearGradient id="paint2_linear_1268_12445" x1="8.95898" y1="25.75" x2="11.3742" y2="33.1938" gradientUnits="userSpaceOnUse">
<stop stop-color="#FFAE35"/>
<stop offset="0.576923" stop-color="#FF532A"/>
<stop offset="0.918269" stop-color="#FF161A"/>
</linearGradient>
<linearGradient id="paint3_linear_1268_12445" x1="63.3203" y1="25.75" x2="65.7355" y2="33.1938" gradientUnits="userSpaceOnUse">
<stop stop-color="#FFAE35"/>
<stop offset="0.576923" stop-color="#FF532A"/>
<stop offset="0.918269" stop-color="#FF161A"/>
</linearGradient>
<linearGradient id="paint4_linear_1268_12445" x1="32.9023" y1="0" x2="50.662" y2="19.3642" gradientUnits="userSpaceOnUse">
<stop stop-color="#FFAE35"/>
<stop offset="0.576923" stop-color="#FF532A"/>
<stop offset="0.918269" stop-color="#FF161A"/>
</linearGradient>
<linearGradient id="paint5_linear_1268_12445" x1="21.6602" y1="16.5625" x2="31.5033" y2="28.728" gradientUnits="userSpaceOnUse">
<stop stop-color="#FFAE35"/>
<stop offset="0.576923" stop-color="#FF532A"/>
<stop offset="0.918269" stop-color="#FF161A"/>
</linearGradient>
<linearGradient id="paint6_linear_1268_12445" x1="50.8418" y1="16.5625" x2="60.685" y2="28.728" gradientUnits="userSpaceOnUse">
<stop stop-color="#FFAE35"/>
<stop offset="0.576923" stop-color="#FF532A"/>
<stop offset="0.918269" stop-color="#FF161A"/>
</linearGradient>
</defs>
</svg>
