<svg width="135" height="137" viewBox="0 0 135 137" fill="none" xmlns="http://www.w3.org/2000/svg">
<path d="M57.6172 0.0214844C58.1409 -0.0275781 58.6489 0.00546539 59.1562 0.144531C59.7336 0.302898 60.2856 0.587168 60.7061 1.01855C61.8498 2.19214 62.8772 4.13355 63.7705 5.52734C65.0016 7.44827 66.3145 9.33502 67.4258 11.3281C69.5996 10.3339 71.7278 9.12996 73.8457 8.0166C75.6912 7.04659 77.5779 6.14146 79.4365 5.19531C80.8199 4.49095 82.242 3.62585 83.6895 3.07031C84.6626 2.6969 85.5419 2.75615 86.4854 3.17773C87.1072 3.45572 87.6041 3.85142 87.9795 4.42188C88.5129 5.23329 88.9268 6.17425 89.3857 7.03223C90.8315 9.73345 92.1514 12.4985 93.5908 15.1992C95.6702 19.1002 97.7999 22.9828 99.8252 26.9121C100.59 28.3961 101.533 29.9204 102.134 31.4688C104.842 32.4494 107.639 33.2565 110.376 34.1562C114.528 35.5209 118.659 36.961 122.82 38.2969L128.781 40.2314C129.92 40.604 131.173 40.9129 132.239 41.4619C133.024 41.8664 133.588 42.4201 134.004 43.2041C134.479 44.0999 134.589 45.1001 134.38 46.0898C134.084 47.4934 133.443 48.9081 132.971 50.2646C132.103 52.7979 131.25 55.3359 130.409 57.8779C127.093 67.6471 123.911 77.4601 120.863 87.3164C121.439 87.5512 121.762 87.7706 122.114 88.2939C122.149 89.163 122.127 90.0403 122.126 90.9102C122.72 90.9061 123.258 90.9606 123.742 91.3447C124.26 91.7557 124.454 92.3296 124.516 92.9648C124.628 94.1318 124.564 95.3552 124.565 96.5283L124.568 102.965L124.566 108.785C124.565 109.885 124.629 111.04 124.507 112.134C124.462 112.539 124.372 112.866 124.096 113.18C123.677 113.655 123.106 113.732 122.514 113.789C122.494 114.823 122.786 116.546 121.975 117.332C121.761 117.539 121.5 117.638 121.211 117.687C120.171 117.863 118.257 117.732 117.118 117.731C117.104 119.253 117.134 120.775 117.116 122.296C117.108 122.935 117.065 123.638 116.564 124.101C115.573 125.017 113.047 124.604 111.768 124.526C111.701 125.477 111.766 126.441 111.729 127.396C111.626 129.98 110.796 132.404 108.951 134.264C108.8 134.417 108.643 134.564 108.481 134.706C108.32 134.848 108.154 134.984 107.982 135.114C107.811 135.244 107.635 135.368 107.455 135.485C107.275 135.603 107.091 135.714 106.903 135.819C106.715 135.924 106.524 136.023 106.329 136.114C106.135 136.205 105.937 136.29 105.736 136.367C105.536 136.444 105.333 136.514 105.127 136.577C104.921 136.64 104.713 136.696 104.504 136.744C102.586 137.181 100.273 136.923 98.2891 136.938C93.1842 136.968 88.0794 136.966 82.9746 136.932L29.7529 136.961L14.6699 136.938L10.8916 136.94C9.82098 136.945 8.68906 137.007 7.63086 136.821C5.2343 136.399 3.15255 134.999 1.76367 133.024C1.64429 132.855 1.52981 132.682 1.42188 132.506C1.31403 132.329 1.21224 132.149 1.11621 131.966C1.01998 131.783 0.929529 131.596 0.845703 131.407C0.761932 131.218 0.684694 131.026 0.613281 130.832C0.542066 130.638 0.47741 130.442 0.418945 130.243C0.360738 130.045 0.308742 129.844 0.263672 129.643C0.218433 129.441 0.179202 129.237 0.147461 129.032C0.115587 128.828 0.0906003 128.622 0.0722656 128.416C-0.0474586 127.068 0.0172328 125.675 0.0195312 124.322L0.03125 117.238L0.0429688 94.082L0.0322266 72.6182L0.0263672 66.8975C0.0234818 65.0534 -0.0406791 63.2151 0.277344 61.3906C1.1004 56.6697 3.40611 52.0277 6.76465 48.5908C8.0295 47.2965 9.44678 46.1846 10.9248 45.1455C10.2685 44.1609 9.71177 43.1055 9.09375 42.0957C8.06775 40.4195 4.89095 35.6199 4.5918 34.0273C4.40134 33.0131 4.65783 31.8828 5.26074 31.042C5.57169 30.6083 5.97076 30.3167 6.4209 30.0439C7.69277 29.2737 9.01618 28.576 10.3037 27.8301L18.4658 23.0654L34.8643 13.3721C38.7846 11.0565 42.6911 8.7181 46.584 6.35645C49.6559 4.47585 52.6932 2.51646 55.8145 0.717773C56.3979 0.381537 56.9472 0.125999 57.6172 0.0214844ZM1.54492 65.7666C1.55069 67.6077 1.53975 69.4478 1.63184 71.2871C2.27295 72.172 2.98554 72.8442 3.90234 73.4395C4.16662 73.6109 5.06016 74.0777 5.16504 74.3076C5.17945 74.3403 5.19735 74.5458 5.19531 74.5713C5.17908 74.7308 5.05007 74.8505 4.91406 74.917C4.67547 75.0339 4.30257 74.9848 4.07617 74.8662C3.21248 74.4132 2.36396 73.8356 1.66797 73.1533C1.55871 83.8861 1.537 94.6195 1.60352 105.353C1.64112 111.457 1.62463 117.562 1.55371 123.666L1.63965 123.737C2.33105 124.31 4.62736 125.543 4.74121 126.359C4.68776 126.532 4.65974 126.594 4.4873 126.688C4.23045 126.826 3.96253 126.751 3.71484 126.642C2.97913 126.316 2.3514 125.751 1.63574 125.385C1.39506 128.033 1.66911 130.543 3.43066 132.659C4.76779 134.265 6.53062 135.204 8.61035 135.387C10.4368 135.548 12.3634 135.43 14.1992 135.426L24.8369 135.386L54.333 135.357L87.2754 135.4L97.2061 135.397C99.1632 135.399 101.191 135.503 103.139 135.327C104.718 135.184 106.151 134.6 107.359 133.566C109.054 132.117 109.824 130.147 110.032 127.974C109.371 127.969 107.777 128.14 107.307 127.666C107.18 127.538 107.154 127.379 107.183 127.209C107.208 127.063 107.304 126.94 107.43 126.862C108.039 126.485 109.38 126.695 110.083 126.672L110.082 117.694H106.187L97.5977 117.684C95.6932 117.681 93.6973 117.813 91.8057 117.607C88.6056 117.259 85.4963 115.532 83.2471 113.276C80.3004 110.322 78.8036 106.559 78.8174 102.399C78.8178 102.279 78.819 102.159 78.8223 102.039C78.8257 101.919 78.8306 101.799 78.8369 101.679C78.8432 101.559 78.8512 101.438 78.8604 101.318C78.8695 101.198 78.8805 101.079 78.8926 100.959C78.9046 100.839 78.9178 100.72 78.9326 100.601C78.9477 100.481 78.9647 100.362 78.9824 100.243C79.0003 100.124 79.0192 100.006 79.04 99.8877C79.0608 99.7694 79.0828 99.6509 79.1064 99.5332C79.1299 99.4153 79.1551 99.297 79.1816 99.1797C79.208 99.0625 79.2362 98.9455 79.2656 98.8291C79.2951 98.7124 79.3263 98.5964 79.3584 98.4805C79.3904 98.3649 79.4241 98.2496 79.459 98.1348C79.4939 98.0195 79.5295 97.9041 79.5674 97.79C79.6052 97.6759 79.6451 97.5622 79.6855 97.4492C79.726 97.3361 79.7675 97.2233 79.8105 97.1113C79.8539 96.9992 79.8992 96.8874 79.9453 96.7764C79.9911 96.6652 80.0382 96.5543 80.0869 96.4443C80.1354 96.3344 80.185 96.2248 80.2363 96.1162C80.2877 96.0076 80.3405 95.8993 80.3945 95.792C80.4483 95.6845 80.504 95.5776 80.5605 95.4717C80.617 95.3656 80.6752 95.2599 80.7344 95.1553C80.7933 95.0508 80.8534 94.9468 80.915 94.8438C80.9765 94.7404 81.0394 94.6379 81.1035 94.5361C81.1677 94.4345 81.2333 94.3335 81.2998 94.2334C81.3664 94.1333 81.434 94.0341 81.5029 93.9355C81.5719 93.8371 81.6426 93.7394 81.7139 93.6426C81.7853 93.546 81.8581 93.4503 81.9316 93.3555C82.0054 93.2603 82.0802 93.1665 82.1562 93.0732C82.2323 92.98 82.3094 92.8872 82.3877 92.7959C82.4657 92.7048 82.5448 92.6146 82.625 92.5254C82.7055 92.4362 82.7874 92.3471 82.8701 92.2598C82.9526 92.1724 83.0366 92.0863 83.1211 92.001C85.6046 89.5309 88.9405 87.8102 92.4453 87.4541C94.5378 87.2415 96.7128 87.3496 98.8174 87.3496L107.677 87.373C108.486 87.3788 109.296 87.3953 110.104 87.3945C110.088 83.6696 110.092 79.9446 110.116 76.2197C109.517 76.2119 107.51 76.3434 107.162 75.9736C107.038 75.8421 106.936 75.6302 106.949 75.4482C106.962 75.279 107.032 75.1379 107.175 75.043C107.615 74.7495 109.609 74.9368 110.251 74.8975C109.979 72.7996 109.177 71.1612 107.475 69.8496C106.664 69.2251 105.575 68.6394 104.552 68.5254C103.645 68.4244 102.716 68.4802 101.805 68.4922C100.183 68.5138 98.5566 68.5588 96.9346 68.543L78.6777 68.3945L23.5449 68.4277L12.916 68.4121C10.9198 68.4146 8.79207 68.6162 6.82227 68.2939C4.71236 67.9488 3.25476 66.9473 1.54492 65.7666ZM56.8164 126.72C57.7162 126.714 58.7374 126.618 59.625 126.747C59.8047 126.773 59.9071 126.826 60.0361 126.951C60.0907 127.089 60.1171 127.184 60.0889 127.33C60.0316 127.626 59.903 127.743 59.665 127.901C58.1793 127.933 56.6896 127.897 55.2031 127.915C54.1675 127.927 53.0596 128.035 52.0342 127.933C51.8326 127.913 51.6912 127.894 51.5283 127.763C51.4589 127.635 51.4318 127.568 51.4365 127.418C51.4454 127.132 51.57 126.933 51.7793 126.753C51.8722 126.747 51.9654 126.744 52.0586 126.742C53.6437 126.717 55.2311 126.729 56.8164 126.72ZM45.5039 126.689C46.3652 126.678 47.2627 126.595 48.1182 126.67C48.3591 126.691 48.7578 126.737 48.9434 126.916C49.0359 127.006 49.1042 127.08 49.1123 127.211C49.1246 127.408 49.0383 127.577 48.9053 127.719C48.6808 127.958 48.3691 127.927 48.0664 127.934C47.1515 127.932 40.9168 128.082 40.4922 127.814C40.3682 127.736 40.2868 127.528 40.2734 127.388C40.2559 127.205 40.2986 127.033 40.4277 126.898C40.6591 126.658 41.0689 126.704 41.3779 126.698C42.7531 126.689 44.129 126.708 45.5039 126.689ZM29.7461 126.668C31.3362 126.689 32.9265 126.699 34.5166 126.695C35.4104 126.695 36.3775 126.621 37.2637 126.736C37.484 126.765 37.6204 126.803 37.7871 126.958C37.8721 127.123 37.8981 127.227 37.8633 127.407C37.8148 127.658 37.6639 127.752 37.4678 127.883C37.4032 127.888 37.338 127.892 37.2734 127.896C35.7174 127.963 34.1442 127.923 32.5859 127.927C31.7251 127.928 30.7129 128.03 29.8662 127.892C29.716 127.867 29.5689 127.81 29.4688 127.689C29.3914 127.596 29.3484 127.496 29.3516 127.376C29.3604 127.052 29.5289 126.881 29.7461 126.668ZM78.4648 126.716C79.5472 126.715 80.7142 126.625 81.7871 126.73C81.9757 126.749 82.123 126.786 82.2734 126.907C82.4088 127.016 82.4755 127.175 82.4668 127.348C82.4546 127.586 82.2973 127.719 82.1338 127.864C81.1338 128.003 80.018 127.904 79.002 127.907C77.6316 127.912 76.2114 127.993 74.8457 127.9C74.6487 127.887 74.3239 127.879 74.1748 127.744C74.0453 127.627 74.01 127.511 74.0098 127.341C74.0094 127.107 74.1609 126.915 74.3047 126.748C75.6686 126.641 77.0921 126.718 78.4648 126.716ZM100.796 126.734C101.807 126.734 102.9 126.655 103.902 126.775C104.109 126.8 104.25 126.844 104.421 126.96C104.511 127.104 104.566 127.166 104.534 127.346C104.49 127.596 104.34 127.721 104.154 127.874C102.523 127.935 100.877 127.897 99.2441 127.904C98.268 127.908 97.234 127.994 96.2656 127.904C96.0834 127.887 95.9887 127.859 95.8496 127.742C95.7611 127.571 95.7253 127.513 95.7393 127.315C95.7587 127.043 95.8792 126.916 96.0703 126.747C97.6407 126.695 99.2244 126.734 100.796 126.734ZM11.4336 126.726C12.6305 126.725 13.8883 126.638 15.0762 126.742C15.2595 126.758 15.4552 126.79 15.5967 126.918C15.7344 127.043 15.771 127.207 15.7686 127.387C15.7654 127.619 15.6495 127.714 15.5029 127.867C14.3815 127.93 7.66046 128.036 7.07812 127.754C6.99694 127.665 6.94173 127.601 6.92188 127.476C6.87444 127.178 6.9795 126.968 7.1582 126.743C8.56213 126.646 10.0239 126.726 11.4336 126.726ZM22.9287 126.719C24.0164 126.718 25.1935 126.63 26.2705 126.744C26.4833 126.767 26.618 126.821 26.7939 126.939C26.8939 127.101 26.9634 127.219 26.9268 127.418C26.8853 127.642 26.7613 127.739 26.5996 127.878C24.8258 127.924 23.0424 127.898 21.2676 127.899C20.4301 127.9 19.4587 127.994 18.6367 127.875C18.5045 127.856 18.3913 127.811 18.2988 127.71C18.1807 127.581 18.1494 127.441 18.167 127.27C18.1915 127.033 18.3334 126.894 18.4941 126.736C19.9552 126.648 21.4631 126.719 22.9287 126.719ZM89.3799 126.73C90.4035 126.727 91.5408 126.628 92.5547 126.767C92.7366 126.792 92.8503 126.829 92.9912 126.954C93.0629 127.124 93.0909 127.238 93.041 127.423C92.9766 127.661 92.836 127.73 92.6484 127.861C91.8083 127.886 85.4956 128.048 85.0908 127.796C84.9521 127.709 84.8714 127.561 84.8672 127.399C84.8596 127.108 85.0024 126.941 85.1943 126.749C86.5768 126.679 87.9946 126.734 89.3799 126.73ZM70.4072 126.69C70.8039 126.703 71.1797 126.762 71.4619 127.06C71.536 127.249 71.5498 127.407 71.4629 127.596C71.3818 127.772 71.209 127.814 71.04 127.875C68.5725 127.922 66.0835 127.936 63.6162 127.907C63.2281 127.903 62.9074 127.941 62.6211 127.647C62.5583 127.461 62.5081 127.287 62.5811 127.093C62.666 126.866 62.7484 126.801 62.958 126.694C64.2626 126.649 65.5825 126.699 66.8887 126.7C68.06 126.701 69.2369 126.654 70.4072 126.69ZM115.446 117.73C114.211 117.673 112.941 117.661 111.705 117.704L111.721 123.12C112.738 123.121 114.281 123.265 115.252 123.058C115.656 122.273 115.496 118.77 115.446 117.73ZM109.233 89.1045C106.245 89.086 103.246 89.013 100.259 89.0869C95.5954 89.2052 91.6168 88.4641 87.3857 91.001C86.3678 91.6113 85.433 92.2872 84.6143 93.1504C82.1023 95.7984 80.6598 99.2444 80.7822 102.916C80.7858 103.027 80.7915 103.138 80.7979 103.248C80.8041 103.358 80.8111 103.468 80.8203 103.578C80.8293 103.689 80.8399 103.799 80.8516 103.909C80.8634 104.019 80.8763 104.129 80.8906 104.238C80.9052 104.348 80.9213 104.458 80.9385 104.567C80.9557 104.677 80.9743 104.786 80.9941 104.895C81.014 105.003 81.0352 105.112 81.0576 105.22C81.0802 105.328 81.1047 105.436 81.1299 105.544C81.1551 105.652 81.1811 105.759 81.209 105.866C81.2369 105.973 81.2663 106.08 81.2969 106.187C81.3272 106.293 81.3596 106.399 81.3926 106.504C81.4256 106.61 81.4594 106.715 81.4951 106.819C81.5308 106.924 81.5683 107.028 81.6064 107.132C81.6447 107.236 81.6837 107.34 81.7246 107.442C81.7655 107.545 81.8082 107.647 81.8516 107.749C81.8949 107.851 81.9396 107.952 81.9854 108.053C82.0311 108.153 82.0778 108.253 82.126 108.353C82.1743 108.452 82.2246 108.551 82.2754 108.649C82.326 108.748 82.3774 108.845 82.4307 108.942C82.4837 109.039 82.5382 109.136 82.5938 109.231C82.6493 109.327 82.7059 109.422 82.7637 109.517C82.8216 109.611 82.8813 109.704 82.9414 109.797C83.0016 109.89 83.0626 109.982 83.125 110.073C83.1875 110.165 83.2517 110.255 83.3164 110.345C83.381 110.434 83.4468 110.523 83.5137 110.611C83.5804 110.699 83.6479 110.787 83.7168 110.873C83.7859 110.96 83.8567 111.045 83.9277 111.13C83.999 111.215 84.0714 111.299 84.1445 111.382C84.2176 111.465 84.292 111.547 84.3672 111.628C84.4422 111.709 84.5184 111.789 84.5957 111.868C84.6729 111.947 84.7508 112.026 84.8301 112.104C84.9091 112.181 84.9894 112.257 85.0703 112.332C86.6768 113.808 88.722 114.935 90.8594 115.399C92.5937 115.776 94.3614 115.704 96.124 115.705L101.338 115.709L120.571 115.699L120.584 113.838L104.037 113.87L97.4736 113.858C93.047 113.847 89.5565 114.068 86.1494 110.667C83.9248 108.447 82.6346 105.587 82.6465 102.415C82.6577 99.4224 83.9657 96.4313 86.0957 94.3428C86.1951 94.2449 86.2968 94.1491 86.3994 94.0547C86.5024 93.9601 86.6069 93.8664 86.7129 93.7754C86.819 93.6848 86.9267 93.5959 87.0361 93.5088C87.1454 93.4217 87.2569 93.3372 87.3691 93.2539C87.4815 93.1708 87.5948 93.089 87.71 93.0098C87.8252 92.9307 87.9417 92.8534 88.0596 92.7783C88.1776 92.7033 88.2967 92.6302 88.417 92.5596C88.5375 92.4887 88.6594 92.4202 88.7822 92.3535C88.9052 92.2871 89.0292 92.2224 89.1543 92.1602C89.2794 92.0981 89.406 92.0382 89.5332 91.9805C89.6604 91.9229 89.7888 91.8677 89.918 91.8145C90.0471 91.7614 90.1776 91.7106 90.3086 91.6621C90.4396 91.6134 90.5713 91.5666 90.7041 91.5225C90.8367 91.4785 90.9704 91.4368 91.1045 91.3975C91.2385 91.3584 91.3734 91.3217 91.5088 91.2871C91.6442 91.2527 91.7804 91.2202 91.917 91.1904C93.5064 90.8478 95.1158 90.9332 96.7305 90.9326L101.955 90.9287L120.407 90.9092L120.411 89.126L109.233 89.1045ZM98.6533 92.832C96.5621 92.8358 94.0684 92.6288 92.0479 93.1152C90.3563 93.5227 88.6785 94.436 87.4619 95.6846C87.35 95.7996 87.24 95.9177 87.1338 96.0381C87.0277 96.1583 86.9242 96.2811 86.8242 96.4062C86.7239 96.5316 86.6272 96.66 86.5332 96.79C86.4393 96.9201 86.3482 97.0522 86.2607 97.1865C86.173 97.321 86.0887 97.458 86.0078 97.5967C85.9269 97.735 85.8492 97.8754 85.7754 98.0176C85.7013 98.16 85.6307 98.3045 85.5635 98.4502C85.4964 98.5961 85.433 98.7436 85.373 98.8926C85.313 99.0415 85.2568 99.1921 85.2041 99.3438C85.1517 99.4952 85.1028 99.6478 85.0576 99.8018C85.0125 99.9558 84.9702 100.112 84.9326 100.268C84.895 100.423 84.862 100.581 84.832 100.738C84.802 100.896 84.7753 101.054 84.7529 101.213C84.7306 101.372 84.7128 101.532 84.6982 101.691C84.6837 101.851 84.6729 102.012 84.666 102.172C84.6593 102.332 84.6563 102.493 84.6572 102.653C84.694 105.126 85.8095 107.618 87.5918 109.327C89.9636 111.602 92.2622 111.84 95.3887 111.844H99.1064L116.078 111.862C118.328 111.863 120.576 111.918 122.827 111.896C122.899 105.558 122.951 99.189 122.794 92.8525L108.576 92.8145L98.6533 92.832ZM95.3164 96.8135C96.558 96.6984 97.705 96.8849 98.7959 97.5059C100.096 98.2459 100.996 99.4035 101.39 100.849C101.805 102.372 101.618 103.84 100.816 105.203C99.9068 106.75 98.485 107.486 96.8008 107.931C95.4207 108.16 93.9767 107.746 92.8408 106.956C91.6303 106.114 90.7783 104.72 90.5264 103.271C90.2719 101.81 90.6571 100.193 91.5254 98.9912C92.459 97.6998 93.7733 97.0679 95.3164 96.8135ZM95.6592 98.3867C94.4464 98.5804 93.452 99.09 92.7305 100.1C92.1142 100.962 91.8903 102.052 92.0625 103.094C92.2355 104.14 92.8915 105.086 93.7705 105.67C94.562 106.195 95.4142 106.404 96.3545 106.345C97.5618 106.097 98.562 105.526 99.2402 104.463C99.8558 103.497 99.9959 102.341 99.7266 101.24C99.4918 100.28 98.9375 99.4758 98.083 98.9629C97.3753 98.5381 96.4848 98.3213 95.6592 98.3867ZM114.822 80.2861C114.401 79.9944 112.428 80.1549 111.814 80.167C111.811 82.5763 111.78 84.9885 111.812 87.3975C112.898 87.4028 113.994 87.4384 115.079 87.4014C115.068 86.0445 115.237 81.214 114.822 80.2861ZM75.9033 24.708C75.3894 24.9869 75.0484 25.1892 74.79 25.7393C74.0849 27.2416 73.7003 29.0084 73.1641 30.5879C71.7168 34.749 70.3344 38.9315 69.0176 43.1357L63.8262 59.2188C63.0076 61.746 62.134 64.2512 61.3633 66.7949C62.4935 66.8221 63.6243 66.8321 64.7549 66.8252L71.8936 44.5117C72.9574 41.1812 73.9136 37.804 75.0615 34.502C76.7973 34.7862 78.2148 34.7682 79.6982 33.7119C80.9338 32.832 81.6039 31.6231 81.9346 30.1611C91.1091 33.1095 100.262 36.1233 109.395 39.2012C112.565 40.227 115.729 41.2713 118.887 42.335C120.255 42.7937 121.654 43.2126 123.003 43.7227C123.192 43.7942 123.405 43.8563 123.521 44.0312C123.649 44.5572 123.588 45.1088 123.57 45.6445C123.531 46.8281 123.943 48.062 124.656 49.0078C125.416 50.016 126.995 50.646 127.43 51.1924C127.576 51.3764 127.367 51.953 127.309 52.1494C125.963 56.3912 124.456 60.5835 123.103 64.8232C122.005 68.3764 120.864 71.9158 119.682 75.4414C119.172 76.9854 118.698 78.5501 118.136 80.0752C118.033 80.3549 117.931 80.6613 117.72 80.8779C117.396 81.0429 117.085 80.9079 116.76 80.8105L116.77 87.4004L119.143 87.4131L119.163 87.3164C119.423 86.1065 119.881 84.8982 120.25 83.7158L122.442 76.8066L129.676 54.8438C130.441 52.5784 131.273 50.3377 132.028 48.0684C132.3 47.2516 132.666 46.4016 132.839 45.5605C132.959 44.9744 132.912 44.3055 132.579 43.791C132.22 43.2369 131.603 42.8625 130.998 42.6338C129.493 42.0647 127.919 41.6481 126.388 41.1523L119.332 38.7979L94.1279 30.584L81.7246 26.4922L78.1406 25.2949C77.5574 25.1004 76.9465 24.8418 76.3447 24.7285C76.193 24.6999 76.0568 24.6961 75.9033 24.708ZM82.8428 31.8955C81.9945 33.629 80.7829 35.1016 78.8984 35.7422C77.9529 36.0634 76.9619 36.0925 75.9727 36.1055C75.6229 37.6725 75.0946 39.2047 74.5986 40.7305L72.8574 46.0488C71.4515 50.3345 70.0865 54.6335 68.7627 58.9453C67.9391 61.5412 66.9583 64.1056 66.2627 66.7402L83.6943 66.7207C85.9661 66.7196 88.236 66.8058 90.5078 66.7695C87.5094 64.8352 85.5129 62.6703 84.7451 59.0889C84.7235 58.9895 84.7029 58.889 84.6836 58.7891C84.6646 58.6895 84.6466 58.5895 84.6299 58.4893C84.6131 58.389 84.5973 58.2882 84.583 58.1875C84.5687 58.0869 84.5556 57.9857 84.5439 57.8848C84.5321 57.784 84.5219 57.6831 84.5127 57.582C84.5034 57.4806 84.4952 57.3788 84.4883 57.2773C84.4816 57.176 84.4761 57.0742 84.4717 56.9727C84.4673 56.8711 84.4638 56.7695 84.4619 56.668C84.4602 56.5663 84.4604 56.4649 84.4609 56.3633C84.4617 56.2617 84.4637 56.1592 84.4668 56.0576C84.47 55.9561 84.4738 55.8544 84.4795 55.7529C84.4851 55.6517 84.4928 55.5505 84.501 55.4492C84.509 55.3479 84.5176 55.2458 84.5283 55.1445C84.539 55.0436 84.5513 54.9426 84.5645 54.8418C84.5776 54.741 84.5917 54.6404 84.6074 54.54C84.6231 54.4395 84.6401 54.3392 84.6582 54.2393C84.6763 54.1391 84.6954 54.039 84.7158 53.9395C84.7365 53.8398 84.7583 53.7405 84.7812 53.6416C84.8042 53.5425 84.8291 53.444 84.8545 53.3457C84.8799 53.2472 84.9057 53.1486 84.9336 53.0508C84.9615 52.953 84.9913 52.8558 85.0215 52.7588C85.0517 52.6617 85.0826 52.5641 85.1152 52.4678C85.1477 52.3716 85.1819 52.276 85.2168 52.1807C85.2517 52.0852 85.288 51.9901 85.3252 51.8955C85.3626 51.8011 85.4007 51.7068 85.4404 51.6133C85.4799 51.5197 85.5206 51.4257 85.5625 51.333C85.6045 51.2404 85.6473 51.1482 85.6914 51.0566C85.7357 50.9652 85.7818 50.8746 85.8281 50.7842C85.8745 50.6936 85.9222 50.6031 85.9707 50.5137C86.0193 50.4247 86.0685 50.3358 86.1191 50.248C86.17 50.16 86.2225 50.0721 86.2754 49.9854C86.3282 49.8986 86.3824 49.8128 86.4375 49.7275C86.493 49.6429 86.5496 49.5587 86.6074 49.4756C86.6651 49.3926 86.7236 49.31 86.7832 49.2285C86.843 49.1467 86.9042 49.0656 86.9658 48.9854C87.0277 48.9053 87.0907 48.8258 87.1543 48.7471C87.2178 48.6685 87.2822 48.5905 87.3477 48.5137C87.4132 48.4365 87.4804 48.3598 87.5479 48.2842C87.6152 48.2089 87.6829 48.1343 87.752 48.0605C87.8213 47.9868 87.892 47.914 87.9629 47.8418C88.0339 47.7698 88.106 47.6984 88.1787 47.6279C88.2514 47.5577 88.325 47.4884 88.3994 47.4199C88.4737 47.3513 88.549 47.2837 88.625 47.2168C88.701 47.1501 88.7777 47.0835 88.8555 47.0186C88.9331 46.9537 89.0116 46.8901 89.0908 46.8271C89.1699 46.7641 89.2502 46.7017 89.3311 46.6406C89.4117 46.5798 89.4932 46.5199 89.5752 46.4609C89.6573 46.4019 89.7406 46.3442 89.8242 46.2871C89.9075 46.2303 89.9914 46.174 90.0762 46.1191C90.161 46.0642 90.2468 46.0099 90.333 45.957C90.4191 45.9041 90.5061 45.8516 90.5938 45.8008C90.6812 45.75 90.7698 45.7008 90.8584 45.6523C90.9473 45.6036 91.037 45.5554 91.127 45.5088C91.2165 45.4625 91.3068 45.4172 91.3975 45.373C91.4886 45.3287 91.5808 45.2852 91.6729 45.2432C91.7647 45.201 91.8573 45.16 91.9502 45.1201C92.0431 45.0804 92.1366 45.0424 92.2305 45.0049C92.3243 44.9673 92.4188 44.9308 92.5137 44.8955C92.6084 44.8604 92.7041 44.8258 92.7998 44.793C92.8955 44.7601 92.9914 44.7278 93.0879 44.6973C93.1844 44.6667 93.2819 44.6376 93.3789 44.6094C93.4759 44.5812 93.5733 44.5541 93.6709 44.5283C93.7687 44.5025 93.8675 44.4776 93.9658 44.4541C94.0643 44.4306 94.1629 44.4088 94.2617 44.3877C94.3591 44.3682 94.4569 44.3492 94.5547 44.332C94.6527 44.3148 94.7512 44.2991 94.8496 44.2842C94.9477 44.2695 95.0461 44.2563 95.1445 44.2441C95.243 44.2319 95.3416 44.2207 95.4404 44.2109C95.5394 44.201 95.6391 44.192 95.7383 44.1846C95.837 44.1772 95.936 44.1708 96.0352 44.166C96.1342 44.161 96.2338 44.1577 96.333 44.1553C96.4324 44.153 96.5325 44.1514 96.6318 44.1514C96.7311 44.1514 96.8304 44.1528 96.9297 44.1553C97.0289 44.1577 97.1282 44.161 97.2275 44.166C97.3269 44.171 97.4264 44.1771 97.5254 44.1846C97.6244 44.192 97.7236 44.2012 97.8223 44.2109C97.9211 44.2209 98.0197 44.2319 98.1182 44.2441C98.217 44.2564 98.3157 44.2702 98.4141 44.2852C98.5121 44.2999 98.6103 44.3148 98.708 44.332C98.8059 44.3492 98.9036 44.368 99.001 44.3877C99.0984 44.4072 99.1961 44.4282 99.293 44.4502C99.39 44.4723 99.4868 44.4951 99.583 44.5195C99.6794 44.544 99.7755 44.57 99.8711 44.5967C99.9668 44.6234 100.062 44.6516 100.157 44.6807C100.252 44.7099 100.347 44.74 100.441 44.7715C100.535 44.803 100.629 44.8354 100.723 44.8691C100.816 44.903 100.909 44.9385 101.002 44.9746C101.094 45.0107 101.187 45.0476 101.278 45.0859C101.37 45.1243 101.461 45.1644 101.552 45.2051C101.642 45.2457 101.733 45.2873 101.822 45.3301C101.912 45.373 102 45.4167 102.089 45.4619C102.177 45.507 102.266 45.5534 102.354 45.6006C102.441 45.6479 102.527 45.6967 102.613 45.7461C102.699 45.7953 102.785 45.8459 102.87 45.8975C102.955 45.9492 103.039 46.002 103.123 46.0557C103.207 46.1093 103.29 46.164 103.372 46.2197C106.179 48.1007 107.963 51.0706 108.592 54.3623C108.783 55.3641 108.825 56.319 108.797 57.335C108.463 60.8596 107.003 63.8531 104.268 66.1396C103.928 66.4226 103.572 66.6812 103.196 66.9141C105.909 67.0836 107.985 67.8112 109.823 69.917C112.24 72.6865 111.59 75.123 111.77 78.4316C112.919 78.4333 115.245 78.1282 116.087 78.9521C116.338 79.1978 116.514 79.559 116.678 79.8682C116.843 79.0658 117.149 78.276 117.408 77.499C117.873 76.1057 118.356 74.7198 118.803 73.3203L124.173 56.9814C124.717 55.298 125.337 53.6164 125.833 51.9199C124.194 51.0935 122.889 49.7116 122.303 47.9521C121.973 46.9626 121.973 46.0376 121.984 45.0059L100.936 37.8838C94.9001 35.892 88.8237 34.0504 82.8428 31.8955ZM100.717 74.8535C101.697 74.8501 102.751 74.7657 103.723 74.8721C103.981 74.9003 104.28 74.9674 104.428 75.2051C104.526 75.3631 104.533 75.551 104.484 75.7266C104.424 75.9446 104.287 76.016 104.108 76.125C102.907 76.1819 101.665 76.0958 100.459 76.0996C99.0462 76.1042 97.5037 76.2393 96.1113 76.0752C95.8705 76.0467 95.7048 76.0116 95.5146 75.8516C95.4128 75.6691 95.3939 75.5741 95.4326 75.3662C95.4775 75.1264 95.6101 75.0113 95.7998 74.875C97.4357 74.8323 99.08 74.8592 100.717 74.8535ZM73.9531 74.8076C76.2445 74.7429 78.5761 74.7508 80.8682 74.8047C81.2003 74.8123 81.6881 74.79 81.9082 75.0801C82.0671 75.2893 82.03 75.5232 81.9824 75.7598C81.8512 75.9554 81.7715 75.9889 81.5615 76.0713L76.6045 76.0898C75.7899 76.0924 74.8622 76.1834 74.0625 76.0537C73.8577 76.0205 73.6727 75.956 73.5693 75.7607C73.4834 75.5984 73.4618 75.3563 73.5244 75.1826C73.6062 74.9565 73.7601 74.9119 73.9531 74.8076ZM63.0615 74.8311C64.3127 74.814 70.3755 74.6323 71.1377 75.001C71.2662 75.0632 71.3515 75.1101 71.3799 75.2598C71.3844 75.2832 71.3875 75.3073 71.3896 75.3311C71.3918 75.355 71.3928 75.3793 71.3926 75.4033C71.3922 75.4271 71.3905 75.4508 71.3877 75.4746C71.385 75.4983 71.3813 75.5226 71.376 75.5459C71.3708 75.5694 71.3641 75.5926 71.3564 75.6152C71.3486 75.6379 71.34 75.66 71.3301 75.6816C71.3202 75.7035 71.309 75.7246 71.2969 75.7451C71.2846 75.7658 71.2712 75.7863 71.2568 75.8057C71.1121 75.9974 70.9275 76.0392 70.7051 76.0898C69.577 76.0887 62.966 76.2255 62.4688 75.9131C62.321 75.8197 62.232 75.6532 62.207 75.4824C62.1777 75.2799 62.2589 75.155 62.3633 74.9971C62.5696 74.8324 62.8094 74.8478 63.0615 74.8311ZM89.3887 74.8262C90.3599 74.8291 91.4079 74.7467 92.3643 74.8877C92.6127 74.9244 92.7573 74.9752 92.9463 75.1396C92.9988 75.2797 93.0326 75.3177 93.0088 75.4707C92.9605 75.7785 92.8122 75.9039 92.5713 76.0723C91.028 76.1349 89.4705 76.0943 87.9258 76.0928C86.96 76.0921 85.9273 76.1671 84.9717 76.0625C84.7262 76.0356 84.3619 75.985 84.1758 75.8047C84.0681 75.7002 84.0059 75.5205 84.0244 75.3721C84.0575 75.1057 84.2246 74.9565 84.4375 74.8232C86.0846 74.7852 87.7406 74.821 89.3887 74.8262ZM57.0664 74.7861C57.779 74.7857 58.5758 74.6872 59.2773 74.7637C59.5383 74.7921 59.88 74.9492 60.0166 75.1846C60.102 75.3318 60.1181 75.502 60.0479 75.6592C59.9581 75.8585 59.7716 75.9388 59.5859 76.0225L53.8154 76.0361C53.1912 76.0413 52.3541 76.2014 51.7637 76.0518C51.5061 75.9864 51.1471 75.8176 51.0439 75.5527C50.9866 75.4053 50.9973 75.2726 51.0771 75.1387C51.1836 74.9605 51.3995 74.8807 51.584 74.8213C53.4113 74.7875 55.2389 74.7752 57.0664 74.7861ZM45.6074 74.8047C46.4776 74.7993 47.631 74.6611 48.4668 74.8857C48.7153 74.9526 48.8882 75.0333 49.0215 75.2617C49.029 75.4413 49.021 75.6175 48.9131 75.7725C48.7954 75.9414 48.6802 75.9611 48.4961 76.0098C47.1376 76.013 41.5941 76.174 40.7891 75.8857C40.5935 75.8156 40.4697 75.7366 40.3809 75.541C40.3786 75.3449 40.4466 75.194 40.5713 75.0439C40.7157 74.8699 40.8776 74.8595 41.0869 74.8311L45.6074 74.8047ZM23.1465 74.7881C24.181 74.7869 25.3132 74.6979 26.3369 74.832C26.5397 74.8584 26.6564 74.9035 26.8115 75.0352C26.8816 75.1588 26.9077 75.2217 26.9043 75.3682C26.8976 75.6527 26.7465 75.8299 26.5381 75.999L21.5537 76.0107C20.6801 76.0111 19.7318 76.0802 18.8652 75.9629C18.6414 75.9327 18.4814 75.909 18.3047 75.7656C18.218 75.6126 18.1788 75.5115 18.2051 75.332C18.2427 75.0762 18.3489 74.9728 18.5469 74.8203C20.0705 74.7401 21.6201 74.7898 23.1465 74.7881ZM34.5801 74.7959C35.4105 74.7953 36.3204 74.7238 37.1406 74.8281C37.3909 74.8598 37.7932 74.9294 37.9873 75.1074C38.1349 75.2427 38.1248 75.3184 38.1162 75.498C37.9737 75.721 37.8527 75.8516 37.6299 75.9951C35.8055 76.0627 33.9382 76.0205 32.1123 75.9941C31.4562 75.9846 30.76 76.0562 30.1123 75.9961C29.8409 75.9709 29.6361 75.9107 29.4629 75.6914C29.4083 75.5163 29.3737 75.3094 29.4629 75.1357C29.5649 74.9372 29.6565 74.9156 29.8496 74.8271C31.4248 74.7811 33.0043 74.7972 34.5801 74.7959ZM7.33496 74.7383C9.68533 74.84 12.038 74.7701 14.3896 74.7871C14.7939 74.79 15.2388 74.7402 15.5391 75.042C15.5991 75.2114 15.6122 75.3327 15.5752 75.5068C15.5269 75.7347 15.4212 75.8251 15.2305 75.9434C14.1505 76.016 7.6466 76.1777 7.09277 75.6777C6.91499 75.5168 6.89349 75.3061 6.90527 75.083C7.03365 74.8771 7.12461 74.8504 7.33496 74.7383ZM36.9121 54.4707C33.6174 51.5397 29.0901 49.8372 24.6699 50.0879C24.5627 50.094 24.6002 50.0912 24.4883 50.1094C19.747 50.6335 15.5955 52.5876 12.5723 56.375C10.1371 59.4257 8.94925 63.0553 8.81836 66.9336L10.4639 66.9248C10.7617 62.6429 12.3664 58.5348 15.6807 55.6777C18.6802 53.0918 22.6796 51.6642 26.6445 51.9746C26.8576 51.9916 27.0707 52.0108 27.2832 52.0332C31.6616 52.6776 35.2874 54.8111 37.9453 58.3721C39.7509 60.791 40.8363 63.9352 40.9111 66.9561C41.4984 66.9541 42.0879 66.9626 42.6748 66.9385C42.6217 65.9705 42.5594 65.0187 42.375 64.0645C42.3286 63.8352 42.2771 63.6072 42.2217 63.3799C42.1663 63.1525 42.1064 62.9262 42.042 62.7012C41.9777 62.4766 41.9092 62.2532 41.8359 62.0312C41.7628 61.8091 41.6845 61.5882 41.6025 61.3691C41.5204 61.1501 41.4345 60.9323 41.3438 60.7168C41.253 60.5011 41.1578 60.2871 41.0586 60.0752C40.9593 59.8634 40.8556 59.654 40.748 59.4463C40.6405 59.2386 40.5289 59.0324 40.4131 58.8291C40.2974 58.6257 40.1775 58.425 40.0537 58.2266C39.93 58.0279 39.8023 57.832 39.6709 57.6387C39.5393 57.4452 39.4037 57.2546 39.2646 57.0664C39.1256 56.8784 38.9825 56.693 38.8359 56.5107C38.6894 56.3283 38.5393 56.1489 38.3857 55.9727C38.2319 55.7961 38.0747 55.6223 37.9141 55.4521C37.7538 55.2823 37.5898 55.1157 37.4229 54.9521C37.2555 54.7884 37.0856 54.6275 36.9121 54.4707ZM24.9424 45.0244C24.9202 45.0248 24.8972 45.0258 24.875 45.0264C24.6982 45.0331 24.5213 45.0417 24.3447 45.0527C24.1679 45.0636 23.9909 45.0765 23.8145 45.0918C23.6378 45.1071 23.4613 45.1251 23.2852 45.1445C23.1088 45.164 22.9324 45.1853 22.7568 45.209C22.5814 45.2329 22.4063 45.2591 22.2314 45.2871C22.0565 45.3152 21.8813 45.3456 21.707 45.3779C21.5329 45.4102 21.3589 45.444 21.1855 45.4805C21.0122 45.5167 20.8394 45.556 20.667 45.5967C20.4945 45.6374 20.322 45.6799 20.1504 45.7246C19.9789 45.7695 19.808 45.8162 19.6377 45.8652C19.4674 45.9141 19.2979 45.9655 19.1289 46.0186C18.9596 46.0717 18.7907 46.1265 18.623 46.1836C18.4552 46.2407 18.2883 46.3 18.1221 46.3613C17.9557 46.4225 17.7897 46.4856 17.625 46.5508C17.4602 46.6159 17.2959 46.6828 17.1328 46.752C16.9698 46.8212 16.8078 46.8927 16.6465 46.9658C16.4851 47.039 16.3245 47.1145 16.165 47.1914C16.0054 47.2684 15.8463 47.3469 15.6885 47.4277C15.531 47.5085 15.3743 47.5912 15.2188 47.6758C15.0628 47.7604 14.9075 47.8471 14.7539 47.9355C14.6005 48.0239 14.4482 48.1141 14.2969 48.2061C14.1454 48.2981 13.9947 48.3926 13.8457 48.4883C13.6965 48.584 13.5482 48.6811 13.4014 48.7803C13.2546 48.8796 13.1093 48.981 12.9648 49.084C12.8204 49.1867 12.6769 49.291 12.5352 49.3975C12.3935 49.5036 12.2534 49.6121 12.1143 49.7217C11.9752 49.8313 11.8366 49.9426 11.7002 50.0557C11.5637 50.1687 11.4285 50.2832 11.2949 50.3994C11.1612 50.5158 11.0293 50.6343 10.8984 50.7539C10.7676 50.8735 10.6378 50.9945 10.5098 51.1172C10.3821 51.2397 10.2557 51.3637 10.1309 51.4893C10.0061 51.6149 9.88252 51.7424 9.76074 51.8711C6.37143 55.5147 4.10325 60.6186 4.05664 65.6377C5.19995 66.5212 6.50139 66.7952 7.91309 66.9385C7.98634 62.0172 9.84853 57.475 13.3857 54.0186C16.5818 50.8957 21.164 49.1084 25.625 49.1641C25.9311 49.1702 26.2375 49.1821 26.543 49.2002C26.6888 49.208 26.8348 49.2182 26.9805 49.2295C27.1261 49.2409 27.2717 49.2537 27.417 49.2686C27.5623 49.2835 27.7078 49.3008 27.8525 49.3193C27.9973 49.3378 28.1419 49.3578 28.2861 49.3799C28.4305 49.4018 28.5749 49.4256 28.7188 49.4512C28.8626 49.4767 29.0064 49.504 29.1494 49.5332C29.2927 49.5622 29.4356 49.5933 29.5781 49.626C29.7204 49.6584 29.8624 49.6932 30.0039 49.7295C30.1454 49.7656 30.2871 49.8032 30.4277 49.8428C30.5685 49.8823 30.709 49.9238 30.8486 49.9668C30.9881 50.0098 31.1272 50.0542 31.2656 50.1006C31.4043 50.147 31.5423 50.1953 31.6797 50.2451C31.817 50.295 31.9539 50.3471 32.0898 50.4004C32.226 50.4535 32.3615 50.508 32.4961 50.5645C32.631 50.621 32.7651 50.6793 32.8984 50.7393C33.0316 50.799 33.1642 50.8599 33.2959 50.9229C33.4278 50.9859 33.5591 51.0509 33.6895 51.1172C33.8197 51.1835 33.9486 51.2518 34.0771 51.3213C34.2057 51.3908 34.3341 51.4616 34.4609 51.5342C34.5877 51.6068 34.714 51.6812 34.8389 51.7568C34.9636 51.8324 35.088 51.9096 35.2109 51.9883C35.3341 52.0669 35.4561 52.1478 35.5771 52.2295C35.6982 52.3111 35.8184 52.394 35.9375 52.4785C36.0564 52.5631 36.1742 52.6497 36.291 52.7373C36.4081 52.8248 36.5248 52.9134 36.6396 53.0039C36.7545 53.0943 36.868 53.1871 36.9805 53.2803C37.0928 53.3734 37.2043 53.4677 37.3145 53.5635C37.4247 53.6594 37.5337 53.7569 37.6416 53.8555C37.7492 53.954 37.8556 54.0541 37.9609 54.1553C38.0661 54.2565 38.1705 54.3592 38.2734 54.4629C38.3762 54.5668 38.4779 54.6721 38.5781 54.7783C38.6783 54.8846 38.7774 54.992 38.875 55.1006C41.7643 58.3443 43.5905 62.5328 43.6211 66.9131L47.1709 66.9209C47.0427 60.7185 44.7887 55.2894 40.2998 50.9775C40.1724 50.8561 40.0435 50.7364 39.9131 50.6182C39.7828 50.4999 39.6508 50.3828 39.5176 50.2676C39.3845 50.1524 39.2502 50.0385 39.1143 49.9268C38.9782 49.815 38.8408 49.705 38.7021 49.5967C38.5635 49.4882 38.4236 49.3815 38.2822 49.2764C38.1411 49.1714 37.9983 49.0684 37.8545 48.9668C37.7106 48.8654 37.5651 48.766 37.4189 48.668C37.2726 48.57 37.1252 48.4732 36.9766 48.3789C36.828 48.2846 36.6782 48.1921 36.5273 48.1016C36.3766 48.0109 36.2243 47.9219 36.0713 47.835C35.9185 47.748 35.7643 47.6633 35.6094 47.5801C35.4542 47.497 35.2977 47.4152 35.1406 47.3359C34.9834 47.2565 34.8251 47.179 34.666 47.1035C34.5072 47.0281 34.3473 46.9544 34.1865 46.8828C34.0257 46.8112 33.8635 46.7414 33.7012 46.6738C33.539 46.6063 33.3758 46.541 33.2119 46.4775C33.0478 46.4139 32.8824 46.3516 32.7168 46.292C32.5513 46.2324 32.3848 46.1756 32.2178 46.1201C32.0509 46.0645 31.8832 46.0104 31.7148 45.959C31.5466 45.9076 31.3775 45.8587 31.208 45.8115C31.0384 45.7641 30.868 45.719 30.6973 45.6758C30.5267 45.6329 30.3553 45.5917 30.1836 45.5527C30.012 45.514 29.8397 45.477 29.667 45.4424C29.4946 45.4076 29.3216 45.3751 29.1484 45.3447C28.975 45.3144 28.8011 45.2859 28.627 45.2598C28.4529 45.2336 28.2782 45.2095 28.1035 45.1875C27.929 45.1656 27.7542 45.1457 27.5791 45.1279C27.4039 45.1104 27.2281 45.0945 27.0527 45.0811C26.8772 45.0679 26.7013 45.0568 26.5254 45.0479C26.3497 45.0387 26.1741 45.0321 25.998 45.0273C25.8221 45.0227 25.6458 45.0199 25.4697 45.0195C25.294 45.019 25.1181 45.0204 24.9424 45.0244ZM25.1602 52.8877C25.0695 52.8904 24.9809 52.8973 24.8906 52.9053C20.9399 53.1812 17.5081 54.8306 14.9053 57.8447C12.7045 60.3934 11.5719 63.5739 11.4785 66.9229L26.6641 66.916L39.9033 66.9131C39.9004 66.7948 39.8966 66.6766 39.8906 66.5586C39.8847 66.4403 39.877 66.3222 39.8682 66.2041C39.8594 66.0861 39.8496 65.9683 39.8379 65.8506C39.8263 65.733 39.8125 65.6153 39.7979 65.498C39.7831 65.3807 39.7674 65.2632 39.75 65.1465C39.7325 65.0295 39.7138 64.9123 39.6934 64.7959C39.6729 64.6794 39.6502 64.5622 39.627 64.4463C39.6035 64.3303 39.5789 64.2149 39.5527 64.0996C39.5264 63.9843 39.4988 63.8685 39.4697 63.7539C39.4407 63.6392 39.4098 63.525 39.3779 63.4111C39.346 63.2973 39.3129 63.1834 39.2783 63.0703C39.2436 62.9573 39.2076 62.8445 39.1699 62.7324C39.1325 62.6201 39.0931 62.5086 39.0527 62.3975C39.0122 62.286 38.9709 62.1747 38.9277 62.0645C38.8848 61.9544 38.8397 61.8452 38.7939 61.7363C38.7483 61.6273 38.7018 61.5181 38.6533 61.4102C38.6048 61.3022 38.5541 61.1947 38.5029 61.0879C38.4518 60.9815 38.3995 60.8757 38.3457 60.7705C38.2919 60.6651 38.2372 60.5599 38.1807 60.4561C38.1243 60.352 38.0658 60.249 38.0068 60.1465C37.9478 60.0439 37.8877 59.9419 37.8262 59.8408C37.7645 59.7398 37.7017 59.6395 37.6377 59.54C37.5737 59.4405 37.5088 59.3412 37.4424 59.2432C37.3759 59.1452 37.3082 59.0482 37.2393 58.9521C37.1703 58.856 37.1005 58.7605 37.0293 58.666C36.9581 58.5715 36.885 58.4784 36.8115 58.3857C36.738 58.2929 36.6628 58.2011 36.5869 58.1104C36.5112 58.0195 36.4344 57.9297 36.3564 57.8408C36.2784 57.7522 36.1993 57.664 36.1191 57.5771C36.0389 57.4902 35.9576 57.4034 35.875 57.3184C35.7927 57.2335 35.7086 57.1503 35.624 57.0674C35.5396 56.9845 35.4537 56.9029 35.3672 56.8223C32.6802 54.2685 28.8705 52.7787 25.1602 52.8877ZM25.4385 42.127C25.0467 42.1191 24.6392 42.1183 24.249 42.1592C17.6051 42.6452 11.4955 45.5313 7.11914 50.6113C4.77331 53.3347 2.91502 56.6532 2.08301 60.1592C1.81142 61.304 1.66945 62.4654 1.53125 63.6318C1.92023 64.0258 2.30431 64.4249 2.72363 64.7871C3.3847 58.323 6.05958 52.862 11.1289 48.6963C11.2709 48.5808 11.4139 48.4665 11.5586 48.3545C11.7036 48.2424 11.8504 48.132 11.998 48.0234C12.1453 47.9151 12.2944 47.8089 12.4443 47.7041C12.5945 47.5993 12.7458 47.4956 12.8984 47.3945C13.0512 47.2933 13.2053 47.1941 13.3604 47.0967C13.5155 46.9993 13.6717 46.9034 13.8291 46.8096C13.9865 46.716 14.145 46.6242 14.3047 46.5342C14.4644 46.4444 14.6253 46.3565 14.7871 46.2705C14.9488 46.1849 15.1116 46.1014 15.2754 46.0195C15.439 45.9376 15.6038 45.8572 15.7695 45.7793C15.9354 45.7013 16.103 45.6255 16.2705 45.5518C16.4379 45.4781 16.6064 45.4065 16.7754 45.3369C16.9448 45.2672 17.1152 45.1993 17.2861 45.1338C17.4572 45.0683 17.6292 45.0047 17.8018 44.9434C17.9743 44.882 18.1482 44.8228 18.3223 44.7656C18.4962 44.7085 18.6713 44.6535 18.8467 44.6006C19.0219 44.5477 19.1977 44.4969 19.374 44.4482C19.5508 44.3997 19.7284 44.3529 19.9062 44.3086C20.0837 44.2644 20.2619 44.2225 20.4404 44.1826C20.619 44.1427 20.7987 44.105 20.9785 44.0693C21.1581 44.0338 21.3381 44.0008 21.5186 43.9697C21.6991 43.9386 21.8802 43.9096 22.0615 43.8828C22.2426 43.8561 22.4246 43.8309 22.6064 43.8086C22.788 43.7863 22.9701 43.767 23.1523 43.749C23.3345 43.7311 23.5167 43.7155 23.6992 43.7021C23.882 43.6886 24.0651 43.6769 24.248 43.668C24.431 43.659 24.614 43.6519 24.7969 43.6475C24.9801 43.6429 25.1637 43.6406 25.3467 43.6406C25.5299 43.6406 25.7133 43.6429 25.8965 43.6475C26.0796 43.6518 26.2626 43.6592 26.4453 43.668C26.6283 43.6769 26.8115 43.6878 26.9941 43.7012C27.1767 43.7146 27.3596 43.7302 27.542 43.748C28.1419 43.8116 28.74 43.8935 29.335 43.9941C29.5234 44.0273 29.7118 44.0626 29.8994 44.1006C30.0869 44.1384 30.2742 44.1793 30.4609 44.2217C30.6475 44.2643 30.8341 44.3083 31.0195 44.3555C31.2051 44.4024 31.39 44.4524 31.5742 44.5039C31.7586 44.5555 31.9428 44.6089 32.126 44.665C32.3089 44.7212 32.4912 44.7803 32.6729 44.8408C32.8543 44.9015 33.0351 44.9642 33.2148 45.0293C33.3949 45.0944 33.5746 45.162 33.7529 45.2314C33.9314 45.301 34.1094 45.3725 34.2861 45.4463C34.4628 45.5202 34.6387 45.5967 34.8135 45.6748C34.9882 45.7531 35.1622 45.8335 35.335 45.916C35.5075 45.9985 35.679 46.0833 35.8496 46.1699C36.0203 46.2566 36.19 46.3456 36.3584 46.4365C36.5269 46.5275 36.6951 46.6199 36.8613 46.7148C37.0276 46.81 37.1928 46.9068 37.3564 47.0059C37.5204 47.1048 37.6833 47.2064 37.8447 47.3096C38.0058 47.4124 38.1654 47.518 38.3242 47.625C38.4829 47.7319 38.6409 47.8404 38.7969 47.9512C38.9528 48.0621 39.1074 48.1753 39.2607 48.29C39.4141 48.4048 39.5665 48.5212 39.7168 48.6396C39.8673 48.7581 40.0166 48.8787 40.1641 49.001C40.3115 49.123 40.4572 49.2474 40.6016 49.373C40.746 49.4989 40.8892 49.6257 41.0303 49.7549C41.1717 49.884 41.3121 50.0159 41.4502 50.1484C41.588 50.2811 41.7247 50.4149 41.8594 50.5508C41.9939 50.6867 42.1267 50.8248 42.2578 50.9639C42.3893 51.1033 42.5196 51.2442 42.6475 51.3867C42.7755 51.5292 42.902 51.6737 43.0264 51.8193C43.1506 51.965 43.273 52.1122 43.3936 52.2607C43.5142 52.4093 43.633 52.5595 43.75 52.7109C43.8671 52.8624 43.9824 53.0156 44.0957 53.1699C44.2089 53.3241 44.3203 53.4798 44.4297 53.6367C44.5958 53.8781 44.7579 54.1228 44.915 54.3701C45.0723 54.6175 45.225 54.8681 45.373 55.1211C45.5213 55.374 45.665 55.6295 45.8037 55.8877C45.9424 56.1459 46.0759 56.4067 46.2051 56.6699C46.3343 56.9329 46.4588 57.1983 46.5781 57.4658C46.6975 57.7336 46.8123 58.0036 46.9219 58.2754C47.0315 58.5473 47.1359 58.8212 47.2354 59.0967C47.3351 59.3724 47.4301 59.6504 47.5195 59.9297C47.6089 60.2087 47.6933 60.4894 47.7725 60.7715C47.8517 61.0537 47.9254 61.3372 47.9941 61.6221C48.0629 61.907 48.1263 62.1934 48.1846 62.4805C48.243 62.7678 48.296 63.0565 48.3438 63.3457C48.3915 63.6349 48.4345 63.9251 48.4717 64.2158C48.5087 64.5065 48.5409 64.798 48.5674 65.0898C48.5939 65.3818 48.615 65.6742 48.6309 65.9668C48.6467 66.2595 48.6569 66.5527 48.6621 66.8457L50.041 66.8389C50.067 65.767 50.0797 64.7023 49.9434 63.6357C49.3141 58.7171 46.7804 53.5982 43.3721 50.0195C38.5484 44.9548 32.4463 42.2683 25.4385 42.127ZM54.9512 24.8545L48.3213 28.1689C47.1103 28.7773 45.8369 29.3342 44.6924 30.0605C45.1243 31.5616 45.1556 33.0172 44.373 34.416C44.059 34.9771 43.6403 35.4515 43.1738 35.8906C44.2306 38.2178 58.7112 66.4103 59.2334 66.7988C59.4282 66.8559 59.5236 66.8565 59.7207 66.8086C60.0551 66.1733 60.2385 65.3004 60.4648 64.6123L62.375 58.6221C63.4003 55.4277 64.4864 52.2435 65.4346 49.0254C62.31 47.2745 60.1839 44.8533 59.2041 41.3525C59.1761 41.2552 59.1486 41.1577 59.123 41.0596C59.0975 40.9614 59.0731 40.8624 59.0498 40.7637C59.0266 40.6652 59.0052 40.566 58.9844 40.4668C58.9638 40.3677 58.9441 40.2684 58.9258 40.1689C58.9075 40.0694 58.89 39.9693 58.874 39.8691C58.8582 39.769 58.8435 39.6679 58.8301 39.5674C58.8167 39.467 58.8048 39.3664 58.7939 39.2656C58.7831 39.1649 58.7731 39.064 58.7646 38.9629C58.7562 38.8618 58.7491 38.7604 58.7432 38.6592C58.7373 38.558 58.7329 38.4568 58.7295 38.3555C58.7261 38.2542 58.7236 38.1522 58.7227 38.0508C58.7219 37.9496 58.7221 37.8483 58.7236 37.7471C58.7253 37.6456 58.7284 37.5436 58.7324 37.4424C58.7364 37.341 58.7414 37.2396 58.748 37.1387C58.7545 37.0376 58.7623 36.9366 58.7715 36.8359C58.7806 36.7348 58.7912 36.6331 58.8027 36.5322C58.8143 36.4319 58.8269 36.3315 58.8408 36.2314C58.855 36.1309 58.8703 36.0298 58.8867 35.9297C58.9033 35.8298 58.9215 35.7304 58.9404 35.6309C58.9594 35.5313 58.9796 35.4312 59.001 35.332C59.0226 35.2331 59.0455 35.1345 59.0693 35.0361C59.0932 34.9376 59.1184 34.8392 59.1445 34.7412C59.1709 34.6432 59.1979 34.5454 59.2266 34.4482C59.2552 34.351 59.2853 34.2537 59.3164 34.1572C59.3475 34.0608 59.3806 33.9648 59.4141 33.8691C59.4475 33.7733 59.4817 33.6777 59.5176 33.583C59.5533 33.4881 59.5909 33.3937 59.6289 33.2998C59.6671 33.206 59.7057 33.1124 59.7461 33.0195C59.7866 32.9267 59.8284 32.8341 59.8711 32.7422C59.9138 32.6504 59.9579 32.5584 60.0029 32.4678C60.0478 32.3769 60.0944 32.2859 60.1416 32.1963C60.1887 32.1066 60.2377 32.0173 60.2871 31.9287C60.3331 31.8485 60.3799 31.7686 60.4277 31.6895C60.4757 31.6101 60.5244 31.5313 60.5742 31.4531C60.624 31.3751 60.6748 31.2976 60.7266 31.2207C60.7783 31.1439 60.8311 31.0669 60.8848 30.9912C60.9384 30.9158 60.9933 30.8408 61.0488 30.7666C61.1043 30.6923 61.1604 30.6186 61.2178 30.5459C61.275 30.4732 61.3334 30.4012 61.3926 30.3301C61.4518 30.2586 61.5123 30.1879 61.5732 30.1182C61.6342 30.0482 61.6961 29.9785 61.7588 29.9102C61.8213 29.8419 61.8849 29.7748 61.9492 29.708C62.0134 29.6413 62.0784 29.5749 62.1445 29.5098C62.2104 29.4445 62.2771 29.3798 62.3447 29.3164C62.4122 29.2529 62.4808 29.1905 62.5498 29.1289C62.6186 29.0671 62.6884 29.0062 62.7588 28.9463C62.8295 28.8861 62.9016 28.8269 62.9736 28.7686C63.0455 28.7105 63.118 28.6529 63.1914 28.5967C63.2648 28.5402 63.3393 28.4842 63.4141 28.4297C63.4888 28.3751 63.5646 28.3214 63.6406 28.2686C63.7169 28.2158 63.7945 28.1633 63.8721 28.1123C63.9493 28.0616 64.0277 28.0117 64.1064 27.9629C64.1849 27.9141 64.2642 27.8662 64.3438 27.8193C64.4238 27.7724 64.5048 27.7267 64.5859 27.6816C64.6669 27.6367 64.7487 27.5928 64.8311 27.5498C64.9132 27.5069 64.9958 27.4647 65.0791 27.4238C65.1621 27.383 65.2459 27.3435 65.3301 27.3047C65.4142 27.2659 65.4989 27.2281 65.584 27.1914C65.6692 27.1545 65.7548 27.1186 65.8408 27.084C65.927 27.0494 66.0136 27.0159 66.1006 26.9834C66.1872 26.951 66.2747 26.9198 66.3623 26.8896C66.4499 26.8593 66.5378 26.8298 66.626 26.8018C66.7144 26.7737 66.8036 26.7465 66.8926 26.7207C66.9814 26.695 67.0707 26.6702 67.1602 26.6465C69.1018 26.1213 70.8923 26.1935 72.8623 26.457C73.2652 25.2301 73.5958 23.9948 74.8457 23.3525C76.0882 22.7143 77.3832 23.2803 78.6055 23.7012C83.729 25.4797 88.8713 27.2024 94.0322 28.8691C93.3071 27.181 92.3153 25.5554 91.4648 23.9238C89.8932 20.9084 88.3535 17.8564 86.7227 14.874C84.7849 15.4251 83.0366 15.2225 81.2715 14.2266C80.437 13.7555 79.9381 13.2083 79.3291 12.4893L54.9512 24.8545ZM96.2988 45.6621L96.2217 45.668C93.1157 45.9494 90.4297 47.2894 88.4121 49.6846C86.6087 51.8262 85.8371 54.6103 86.082 57.3721C86.3209 60.0653 87.5553 62.5754 89.6484 64.3125C91.7679 66.0718 94.5791 66.8383 97.2939 66.8389C100.136 66.6847 102.658 65.908 104.607 63.7197C104.723 63.5902 104.834 63.4581 104.943 63.3232C105.052 63.1882 105.158 63.0502 105.26 62.9102C105.362 62.7699 105.462 62.6267 105.557 62.4814C105.652 62.3367 105.743 62.1894 105.831 62.04C105.919 61.8906 106.003 61.7387 106.084 61.585C106.165 61.4314 106.242 61.2755 106.314 61.1182C106.387 60.9608 106.456 60.8014 106.521 60.6406C106.587 60.4798 106.648 60.317 106.705 60.1533C106.762 59.9895 106.815 59.8244 106.864 59.6582C106.913 59.4918 106.959 59.324 107 59.1553C107.041 58.9866 107.078 58.8169 107.11 58.6465C107.143 58.476 107.171 58.3045 107.195 58.1328C107.22 57.961 107.24 57.7888 107.256 57.6162C107.272 57.4433 107.283 57.2699 107.29 57.0967C107.297 56.9233 107.301 56.7496 107.3 56.5762C107.299 56.4027 107.293 56.2297 107.283 56.0566C107.278 55.9633 107.271 55.8695 107.264 55.7764C107.256 55.6832 107.247 55.59 107.236 55.4971C107.226 55.4042 107.215 55.3112 107.202 55.2188C107.19 55.1259 107.177 55.0329 107.162 54.9404C107.147 54.8481 107.131 54.756 107.114 54.6641C107.097 54.572 107.079 54.4802 107.06 54.3887C107.04 54.2972 107.021 54.2054 106.999 54.1143C106.978 54.0235 106.954 53.9331 106.931 53.8428C106.907 53.7522 106.882 53.6612 106.856 53.5713C106.83 53.4817 106.803 53.3926 106.774 53.3037C106.746 53.2145 106.718 53.1248 106.688 53.0361C106.657 52.9479 106.625 52.86 106.593 52.7725C106.56 52.6848 106.526 52.5977 106.491 52.5107C106.456 52.4238 106.421 52.3369 106.385 52.251C106.348 52.1648 106.309 52.0791 106.271 51.9941C106.232 51.9092 106.191 51.8242 106.15 51.7402C106.109 51.6564 106.067 51.5731 106.024 51.4902C105.981 51.4071 105.938 51.3241 105.893 51.2422C105.848 51.1603 105.801 51.0789 105.754 50.998C105.707 50.9173 105.658 50.8374 105.609 50.7578C105.56 50.6782 105.51 50.5988 105.459 50.5205C105.408 50.442 105.356 50.3641 105.303 50.2871C105.25 50.2102 105.196 50.134 105.142 50.0586C105.087 49.9828 105.03 49.9075 104.974 49.833C104.917 49.7588 104.859 49.6852 104.801 49.6123C104.742 49.5395 104.683 49.4668 104.623 49.3955C104.563 49.3239 104.501 49.2527 104.439 49.1826C104.377 49.1128 104.314 49.044 104.25 48.9756C104.187 48.9071 104.122 48.8392 104.057 48.7725C103.991 48.7056 103.924 48.6394 103.857 48.5742C103.79 48.5091 103.723 48.4445 103.654 48.3809C103.586 48.3172 103.516 48.2541 103.445 48.1924C101.59 46.581 98.773 45.4881 96.2988 45.6621ZM85.6777 4.4541C85.3792 4.34902 85.0774 4.36066 84.7676 4.39062C83.8621 4.65771 82.9885 5.18192 82.1504 5.61328C80.6036 6.40948 79.0711 7.24668 77.5098 8.0127C68.5723 12.4568 59.662 16.955 50.7783 21.5068L41.3242 26.2539C40.0252 26.9021 38.0394 27.7406 36.8643 28.4912C36.5735 28.6769 36.3534 28.9085 36.1807 29.208C35.8109 29.8502 35.6068 30.5592 35.8213 31.2861C36.0091 31.9224 36.3786 32.5385 36.6816 33.1279C37.2958 34.3239 37.9555 35.5025 38.5527 36.7061L42.6982 45.1064C43.3873 46.5106 44.011 48.043 44.8262 49.3721C45.2192 50.0127 45.7797 50.5786 46.2412 51.1738C47.0236 52.1828 47.7345 53.2888 48.3486 54.4082C48.9602 55.5352 49.4958 56.6976 49.9561 57.8945C50.2929 58.7812 50.5748 59.704 50.9629 60.5693C51.323 61.3719 51.7726 62.1454 52.1729 62.9297L54.1133 66.8232C55.2719 66.8316 56.4303 66.8296 57.5889 66.8174L50.1621 52.6641C49.0817 50.5785 48.0833 48.4528 46.96 46.3887L43.6787 39.9316C43.0531 38.7146 42.3158 37.4804 41.7998 36.2188C41.7293 36.0465 41.5611 35.6463 41.6348 35.4648C41.9336 34.73 43.4583 34.3414 43.6514 32.3936C43.7553 31.3449 43.289 30.5563 43.1543 29.5625C43.1358 29.4251 43.1156 29.3236 43.2236 29.2207C43.6904 28.7767 44.5921 28.4562 45.1738 28.1602L50.501 25.5L70.5107 15.375L76.5146 12.2783C77.4813 11.7858 78.5123 11.161 79.541 10.833C79.6436 10.7992 79.7474 10.7697 79.8525 10.7441C80.9176 12.2661 81.9572 13.4103 83.8643 13.7607C84.8109 13.9348 85.8027 13.8843 86.6299 13.3379C86.8581 13.1872 87.0698 12.9953 87.2812 12.8223C88.9402 16.1062 90.6308 19.3739 92.3535 22.625C93.5468 24.8682 94.8339 27.1084 95.8623 29.4336C97.2367 29.9151 98.6624 30.4135 100.064 30.8037C97.3238 25.3227 94.354 19.9445 91.5215 14.5098L88.3887 8.39355C87.8702 7.39632 87.3692 6.33329 86.7539 5.39355C86.4852 4.98307 86.1509 4.62053 85.6777 4.4541ZM97.8691 49.4248C98.0528 49.4196 98.2155 49.4323 98.3965 49.4678C98.679 49.5236 98.9334 49.6007 99.084 49.8721C99.1634 50.0151 99.1351 50.1312 99.0996 50.2793C99.075 50.3832 99.0157 50.5629 99.0537 50.666C99.2143 51.1025 100.255 51.6707 100.569 52.3262C100.951 53.1234 101.139 54.5198 100.744 55.3359C100.67 55.4897 100.603 55.5662 100.44 55.625C100.252 55.6934 100.011 55.7506 99.8281 55.6367C99.3577 55.3435 99.6249 54.1325 99.543 53.6299C99.4518 53.0725 99.1695 52.5342 98.6992 52.207C98.1466 51.8218 97.3461 51.7152 96.6934 51.8369C96.6193 51.8508 96.546 51.8683 96.4736 51.8896C96.4011 51.911 96.3297 51.9363 96.2598 51.9648C96.1896 51.9935 96.1206 52.026 96.0537 52.0615C95.9871 52.097 95.9221 52.1356 95.8594 52.1777C95.7964 52.2198 95.736 52.2654 95.6777 52.3135C95.6193 52.3618 95.5629 52.4129 95.5098 52.4668C95.4566 52.5205 95.4068 52.5769 95.3594 52.6357C95.312 52.6948 95.2668 52.7559 95.2256 52.8193C94.9876 53.1811 94.8774 53.6125 94.9902 54.0381C95.2991 55.2023 96.9411 55.9196 97.8564 56.499C98.6847 57.0236 99.4196 57.7977 99.6152 58.7871C99.7841 59.6408 99.5766 60.6854 99.0557 61.3926C98.243 62.4965 96.922 62.6938 95.667 62.8721L95.4219 63.376C95.3755 63.4239 95.3568 63.4461 95.2988 63.4883C95.1079 63.6266 94.9104 63.6408 94.6865 63.5928C94.4142 63.5342 94.1332 63.3435 94.0078 63.0898C93.9387 62.9492 93.9772 62.8095 94.0127 62.667C94.0419 62.5491 94.0797 62.4708 94.0332 62.3457C93.9347 62.0802 92.8293 61.2765 92.4854 60.4072C92.1934 59.6689 92.2786 58.9485 92.5781 58.2324C92.6842 57.9787 92.7442 57.8196 93.0029 57.7119C93.2314 57.761 93.5659 57.8141 93.7432 57.9814C94.1298 58.3469 93.7779 58.9366 93.7861 59.3965C93.7955 59.9247 94.136 60.4867 94.5234 60.8271C94.5775 60.8745 94.6339 60.9193 94.6924 60.9609C94.7507 61.0027 94.8109 61.0413 94.873 61.0771C94.9353 61.1129 94.9999 61.1454 95.0654 61.1748C95.1309 61.2044 95.1975 61.2312 95.2656 61.2539C95.3335 61.2766 95.4026 61.2957 95.4727 61.3115C95.5424 61.3275 95.6132 61.3398 95.6846 61.3486C95.7558 61.3576 95.8276 61.3635 95.8994 61.3652C95.9713 61.3669 96.0436 61.3647 96.1152 61.3594C96.7307 61.314 97.4027 61.0623 97.8096 60.5811C98.1073 60.2289 98.2773 59.7099 98.2217 59.25C98.036 57.7142 95.8241 57.0897 94.7754 56.2061C94.0877 55.6264 93.5725 54.7773 93.5146 53.8662C93.4631 53.0546 93.8068 52.1899 94.3379 51.583C95.1569 50.6471 96.2745 50.4241 97.4482 50.3311L97.4961 50.1875C97.5914 49.8897 97.6827 49.6781 97.8691 49.4248ZM72.3555 27.8262C71.5056 27.7031 70.636 27.6273 69.7773 27.6855C69.6096 27.6968 69.4422 27.7127 69.2754 27.7324C69.1084 27.7523 68.942 27.7758 68.7764 27.8037C68.6109 27.8318 68.4462 27.8641 68.2822 27.9004C68.1183 27.9367 67.955 27.9772 67.793 28.0215C67.631 28.0658 67.4702 28.1146 67.3105 28.167C67.151 28.2193 66.9928 28.2756 66.8359 28.3359C66.6791 28.3963 66.5237 28.4603 66.3701 28.5283C66.2166 28.5963 66.0649 28.6686 65.915 28.7441C65.7651 28.8197 65.6168 28.8985 65.4707 28.9814C65.3246 29.0645 65.1807 29.1511 65.0391 29.2412C64.8973 29.3314 64.7571 29.4252 64.6201 29.5225C64.483 29.6195 64.3487 29.7204 64.2168 29.8242C64.0847 29.9279 63.9549 30.0353 63.8281 30.1455C63.7017 30.2556 63.578 30.3689 63.457 30.4854C63.3359 30.6017 63.2175 30.7213 63.1025 30.8438C62.9874 30.9659 62.8754 31.0909 62.7666 31.2188C60.9464 33.35 59.97 36.2082 60.21 39.0107C60.2167 39.0976 60.2246 39.1841 60.2334 39.2705C60.2422 39.3572 60.2518 39.444 60.2627 39.5303C60.2736 39.6166 60.2857 39.703 60.2988 39.7891C60.312 39.8752 60.3265 39.9613 60.3418 40.0469C60.3571 40.1324 60.3733 40.2178 60.3906 40.3027C60.408 40.3881 60.4266 40.4735 60.4463 40.5586C60.4658 40.6434 60.487 40.7282 60.5088 40.8125C60.5303 40.8968 60.5523 40.9809 60.5762 41.0645C60.6001 41.1482 60.6256 41.2315 60.6514 41.3145C60.6773 41.3976 60.7045 41.4809 60.7324 41.5635C60.7605 41.6459 60.7894 41.7281 60.8193 41.8096C60.8495 41.8913 60.8801 41.9728 60.9121 42.0537C60.9442 42.1346 60.9775 42.2148 61.0117 42.2949C61.0459 42.375 61.0811 42.4549 61.1172 42.5342C61.1533 42.6134 61.1905 42.6922 61.2285 42.7705C61.2667 42.8488 61.3056 42.9266 61.3457 43.0039C61.3858 43.0811 61.4268 43.158 61.4688 43.2344C61.5108 43.3106 61.5537 43.3868 61.5977 43.4619C61.6416 43.5371 61.6868 43.6115 61.7324 43.6855C61.7783 43.7597 61.8244 43.8333 61.8721 43.9062C61.9196 43.9792 61.9681 44.0515 62.0176 44.123C62.067 44.1948 62.1178 44.2657 62.1689 44.3359C62.2201 44.4064 62.2723 44.4767 62.3252 44.5459C62.3782 44.6149 62.4318 44.6833 62.4863 44.751C62.541 44.8186 62.597 44.8857 62.6533 44.9521C62.7097 45.0185 62.7671 45.0847 62.8252 45.1494C62.8832 45.2143 62.9424 45.2785 63.002 45.3418C63.0614 45.4052 63.1215 45.4676 63.1826 45.5293C63.2438 45.5912 63.3065 45.6525 63.3691 45.7129C63.4319 45.7732 63.4953 45.8328 63.5596 45.8916C63.6238 45.9504 63.6892 46.0083 63.7549 46.0654C63.8206 46.1225 63.8869 46.179 63.9541 46.2344C64.5669 46.742 65.2321 47.196 65.8818 47.6553C66.1204 47.0243 66.3382 46.3861 66.5361 45.7412C67.1373 43.8737 67.8266 42.0158 68.3682 40.1328C67.365 39.9874 66.5247 39.7704 65.876 38.916C65.2873 38.1407 64.9946 37.1221 65.1309 36.1543C65.2655 35.1981 65.7765 34.4432 66.5586 33.8945C66.5979 33.8669 66.6379 33.8405 66.6777 33.8135C66.5003 33.307 66.2259 32.7526 66.5088 32.2295C66.5902 32.0792 66.6916 32.0134 66.8398 31.9395C67.0827 31.9133 67.2512 31.9448 67.4443 32.1055C67.87 32.4595 67.9447 33.0038 67.9961 33.5225C68.9661 33.48 69.5 33.6055 70.3516 34.0781C71.0643 32.0203 71.7912 29.9288 72.3555 27.8262ZM36.2715 36.0459L36.1943 36.0293C33.9794 36.8575 32.299 38.1311 31.2939 40.3252C31.1637 40.6096 31.04 40.8967 30.9229 41.1865C33.436 41.847 35.9105 42.6996 38.1875 43.9648C39.3022 44.6228 40.3688 45.2942 41.373 46.1172C40.9138 45.1271 36.5844 36.2495 36.2725 36.0254L36.2715 36.0459ZM57.6865 1.51855C56.9313 1.83795 56.2411 2.33551 55.541 2.75977L52.2666 4.71582L37.832 13.4717C30.4646 17.8783 23.0675 22.2353 15.6416 26.543C12.8917 28.1596 10.0583 29.6782 7.36035 31.377C6.85308 31.6962 6.42917 32.0394 6.20605 32.6172C5.97327 33.2198 6.05343 33.8123 6.32715 34.3818C6.74936 35.2608 7.37875 36.0857 7.87012 36.9336L12.1484 44.3682C12.9279 43.9114 13.6979 43.4754 14.5254 43.1094C14.1595 42.5145 12.1463 39.4209 12.2773 38.9365C12.3119 38.8088 12.4625 38.6476 12.5488 38.5537C13.9532 37.655 15.0093 36.761 15.3906 35.0684C15.4328 34.8826 15.4646 34.6951 15.4863 34.5059C15.5083 34.3168 15.5203 34.1271 15.5215 33.9365C15.5226 33.7461 15.5138 33.5557 15.4941 33.3662C15.4746 33.1768 15.4444 32.9888 15.4043 32.8027C15.2895 32.2877 14.8989 31.4351 14.9736 30.9336C15.0089 30.697 15.1025 30.6238 15.2939 30.5029C16.3632 29.8274 17.494 29.2366 18.584 28.5928L30.2988 21.8008L48.8086 10.8848C50.1482 10.0954 51.4371 9.21928 52.7822 8.43945C54.3524 10.2043 55.8767 11.5603 58.3486 11.7041C59.5363 11.7729 60.3147 11.4069 61.3857 10.9766C61.4046 10.9989 61.4239 11.0205 61.4424 11.043C61.9177 11.6189 62.4571 13.1232 63.0439 13.376C63.6243 13.4163 65.3693 12.3702 65.9346 12.0186C65.2521 10.4972 63.5449 8.11027 62.5918 6.6377C61.7238 5.29687 60.6068 3.32129 59.584 2.1582C59.3697 1.91422 59.1134 1.72708 58.8047 1.61914C58.4481 1.49461 58.0591 1.49432 57.6865 1.51855ZM52.3184 10.4512C47.3858 13.5508 42.308 16.4497 37.2754 19.3828L16.6152 31.4287C17.1016 33.4614 17.2418 35.3513 16.1123 37.2178C15.5988 38.0659 14.867 38.7798 14.1328 39.4365C14.8155 40.3688 15.2862 41.5086 15.8799 42.5049C18.5326 41.5344 20.4518 41.0375 23.2441 40.7148C25.3332 40.532 27.3265 40.6543 29.3955 40.9512C30.5185 38.3587 32.0199 36.0828 34.7637 35.0098C35.0555 34.8984 35.35 34.7949 35.6475 34.7002C34.8202 32.8131 33.6555 31.1943 34.4775 29.0508C34.7205 28.417 35.0855 27.7783 35.6475 27.376C36.4764 26.7826 37.5244 26.3574 38.4395 25.8945C40.2878 24.9449 42.1451 24.013 44.0117 23.0996C47.0044 21.6106 49.9892 20.1064 52.9658 18.5859C55.8087 17.1505 58.6526 15.7409 61.4531 14.2227C61.2386 13.7958 60.9964 13.4127 60.7236 13.0205C58.1628 13.5133 55.9149 12.957 53.7578 11.5039C53.3601 11.236 52.7502 10.5248 52.3184 10.4512ZM68.6094 34.8174C68.4226 34.8159 68.2354 34.8207 68.0488 34.8311C67.4114 35.1256 66.8585 35.5037 66.6055 36.1934C66.4291 36.6748 66.4676 37.2038 66.6865 37.665C66.9103 38.1356 67.365 38.5621 67.8672 38.7188C68.0504 38.7759 68.247 38.786 68.4375 38.7979C68.6255 38.7639 68.7011 38.7849 68.8154 38.6211C69.2619 37.9805 69.6627 36.2738 69.9355 35.4648C69.5243 35.0416 69.2129 34.8242 68.6094 34.8174Z" fill="black"/>
</svg>
