<svg width="488" height="148" viewBox="0 0 488 148" fill="none" xmlns="http://www.w3.org/2000/svg">
<path d="M18 33.5C18 22.1782 27.1782 13 38.5 13H109.5C120.822 13 130 22.1782 130 33.5V80C130 110.928 104.928 136 74 136C43.0721 136 18 110.928 18 80V33.5Z" fill="url(#paint0_linear_945_4953)"/>
<path d="M18 33.5C18 22.1782 27.1782 13 38.5 13H109.5C120.822 13 130 22.1782 130 33.5V80C130 110.928 104.928 136 74 136C43.0721 136 18 110.928 18 80V33.5Z" fill="url(#paint1_linear_945_4953)"/>
<path d="M73.7054 115C67.6816 115 62.1816 113.916 57.2054 111.748C52.2946 109.515 48.3661 106.099 45.4196 101.5C42.4732 96.9015 41 90.9562 41 83.6642V34H59.4643V80.708C59.4643 85.9635 60.7083 90.1022 63.1964 93.1241C65.75 96.146 69.4167 97.6569 74.1964 97.6569C79.1071 97.6569 82.7738 96.0474 85.1964 92.8285C87.6845 89.6095 88.9286 85.6022 88.9286 80.8066V34H107V83.8613C107 90.8248 105.56 96.6058 102.679 101.204C99.7976 105.803 95.8363 109.252 90.7947 111.551C85.8185 113.85 80.122 115 73.7054 115Z" fill="white"/>
<path d="M463.315 136.099V76.0664H477.759V136.099H463.315ZM454.829 100.802V88.1631H487.057V100.802H454.829Z" fill="#202020"/>
<path d="M429.288 137.001C423.992 137.001 419.388 135.948 415.476 133.842C411.564 131.675 408.525 128.756 406.358 125.085C404.192 121.354 403.108 117.111 403.108 112.356C403.108 108.685 403.71 105.315 404.914 102.246C406.118 99.1764 407.803 96.5283 409.969 94.3016C412.136 92.0146 414.694 90.2693 417.643 89.0657C420.652 87.8018 423.932 87.1699 427.482 87.1699C430.853 87.1699 433.922 87.7717 436.69 88.9754C439.519 90.1791 441.956 91.8642 444.003 94.0308C446.049 96.1973 447.614 98.7551 448.697 101.704C449.78 104.653 450.262 107.873 450.141 111.363L450.051 115.245H411.865L409.789 107.121H438.315L436.781 108.836V107.03C436.66 105.526 436.179 104.202 435.336 103.058C434.554 101.855 433.501 100.922 432.177 100.26C430.853 99.5977 429.348 99.2667 427.663 99.2667C425.316 99.2667 423.3 99.7481 421.615 100.711C419.99 101.614 418.756 102.968 417.913 104.773C417.071 106.519 416.65 108.685 416.65 111.273C416.65 113.921 417.191 116.238 418.274 118.224C419.418 120.15 421.043 121.655 423.149 122.738C425.316 123.821 427.874 124.363 430.823 124.363C432.869 124.363 434.674 124.062 436.239 123.46C437.864 122.858 439.609 121.835 441.475 120.391L448.245 129.96C446.38 131.585 444.394 132.909 442.287 133.932C440.181 134.955 438.014 135.707 435.788 136.189C433.621 136.73 431.454 137.001 429.288 137.001Z" fill="#202020"/>
<path d="M365.868 122.013L360.542 111.18L382.93 88.1603H401.978L365.868 122.013ZM351.966 136.096V69.293H366.41V136.096H351.966ZM384.465 136.096L367.583 114.249L377.784 106.305L401.526 136.096H384.465Z" fill="#202020"/>
<path d="M310.885 136.099V88.1629H324.606L325.238 103.78L322.53 100.801C323.252 98.2135 324.426 95.8964 326.051 93.8502C327.736 91.804 329.692 90.1791 331.919 88.9754C334.145 87.7717 336.523 87.1699 339.05 87.1699C340.134 87.1699 341.127 87.2602 342.029 87.4407C342.992 87.6213 343.865 87.8319 344.647 88.0727L340.675 104.051C340.013 103.63 339.11 103.299 337.967 103.058C336.884 102.757 335.74 102.607 334.537 102.607C333.213 102.607 331.979 102.848 330.835 103.329C329.692 103.75 328.729 104.382 327.947 105.225C327.164 106.067 326.532 107.06 326.051 108.204C325.63 109.347 325.419 110.641 325.419 112.086V136.099H310.885Z" fill="#202020"/>
<path d="M269.071 136.911C265.039 136.911 261.428 135.858 258.239 133.751C255.109 131.585 252.611 128.636 250.746 124.905C248.88 121.113 247.947 116.84 247.947 112.086C247.947 107.211 248.88 102.908 250.746 99.1764C252.611 95.4451 255.169 92.5262 258.419 90.4198C261.669 88.2532 265.37 87.1699 269.523 87.1699C271.81 87.1699 273.886 87.5009 275.752 88.1629C277.678 88.8249 279.363 89.7578 280.807 90.9614C282.251 92.1049 283.485 93.459 284.508 95.0238C285.531 96.5283 286.284 98.1533 286.765 99.8986L283.786 99.5375V88.1629H298.14V136.099H283.515V124.543L286.765 124.453C286.284 126.138 285.501 127.733 284.418 129.238C283.335 130.742 282.011 132.066 280.446 133.21C278.881 134.353 277.136 135.256 275.21 135.918C273.284 136.58 271.238 136.911 269.071 136.911ZM273.043 124.724C275.27 124.724 277.196 124.212 278.821 123.189C280.446 122.166 281.71 120.722 282.613 118.856C283.515 116.93 283.967 114.673 283.967 112.086C283.967 109.498 283.515 107.271 282.613 105.405C281.71 103.479 280.446 102.005 278.821 100.982C277.196 99.8986 275.27 99.3569 273.043 99.3569C270.877 99.3569 268.981 99.8986 267.356 100.982C265.791 102.005 264.558 103.479 263.655 105.405C262.752 107.271 262.301 109.498 262.301 112.086C262.301 114.673 262.752 116.93 263.655 118.856C264.558 120.722 265.791 122.166 267.356 123.189C268.981 124.212 270.877 124.724 273.043 124.724Z" fill="#202020"/>
<path d="M164.451 136.096V88.1606H178.173L178.624 96.8269L176.728 96.9171C177.451 95.3524 178.353 93.9682 179.437 92.7645C180.58 91.5609 181.844 90.5679 183.228 89.7855C184.673 88.9429 186.147 88.311 187.652 87.8897C189.216 87.4685 190.781 87.2578 192.346 87.2578C194.693 87.2578 196.83 87.6189 198.755 88.3411C200.681 89.0633 202.366 90.2369 203.811 91.8618C205.255 93.4265 206.399 95.563 207.241 98.2713L204.984 98.0907L205.706 96.6463C206.489 95.2019 207.482 93.908 208.686 92.7645C209.949 91.5609 211.334 90.5679 212.838 89.7855C214.343 88.9429 215.907 88.311 217.532 87.8897C219.157 87.4685 220.722 87.2578 222.227 87.2578C226.018 87.2578 229.178 88.0101 231.705 89.5147C234.233 90.9591 236.129 93.1557 237.393 96.1047C238.717 99.0536 239.379 102.635 239.379 106.847V136.096H224.845V108.021C224.845 106.095 224.574 104.5 224.032 103.236C223.49 101.972 222.678 101.04 221.595 100.438C220.572 99.7758 219.278 99.4448 217.713 99.4448C216.449 99.4448 215.276 99.6555 214.192 100.077C213.169 100.498 212.266 101.07 211.484 101.792C210.762 102.514 210.19 103.357 209.769 104.32C209.348 105.283 209.137 106.366 209.137 107.569V136.096H194.603V107.931C194.603 106.125 194.332 104.59 193.79 103.327C193.249 102.063 192.436 101.1 191.353 100.438C190.27 99.7758 189.006 99.4448 187.561 99.4448C186.298 99.4448 185.124 99.6555 184.041 100.077C183.018 100.498 182.115 101.07 181.332 101.792C180.61 102.514 180.039 103.357 179.617 104.32C179.196 105.283 178.985 106.336 178.985 107.479V136.096H164.451Z" fill="#202020"/>
<circle cx="341.771" cy="50.7587" r="10.579" fill="#FF4215"/>
<path d="M302.333 60.8313C297.338 60.8313 292.885 59.748 288.973 57.5815C285.121 55.4149 282.052 52.4659 279.765 48.7346C277.538 45.0033 276.425 40.7303 276.425 35.9157C276.425 31.101 277.538 26.8281 279.765 23.0967C282.052 19.3654 285.121 16.4165 288.973 14.2499C292.885 12.0833 297.338 11 302.333 11C307.329 11 311.752 12.0833 315.604 14.2499C319.516 16.4165 322.585 19.3654 324.812 23.0967C327.039 26.8281 328.152 31.101 328.152 35.9157C328.152 40.7303 327.039 45.0033 324.812 48.7346C322.585 52.4659 319.516 55.4149 315.604 57.5815C311.752 59.748 307.329 60.8313 302.333 60.8313ZM302.333 48.3735C304.5 48.3735 306.426 47.8319 308.111 46.7486C309.796 45.6653 311.12 44.1908 312.083 42.3251C313.046 40.4595 313.497 38.323 313.437 35.9157C313.497 33.5084 313.046 31.3719 312.083 29.5062C311.12 27.5804 309.796 26.0758 308.111 24.9925C306.426 23.9092 304.5 23.3676 302.333 23.3676C300.167 23.3676 298.211 23.9092 296.466 24.9925C294.781 26.0758 293.457 27.5804 292.494 29.5062C291.531 31.3719 291.079 33.5084 291.139 35.9157C291.079 38.323 291.531 40.4595 292.494 42.3251C293.457 44.1908 294.781 45.6653 296.466 46.7486C298.211 47.8319 300.167 48.3735 302.333 48.3735Z" fill="#202020"/>
<path d="M222.462 59.9286V11.993H236.184L236.635 21.7426L233.746 22.8259C234.408 20.6593 235.582 18.7034 237.267 16.9581C239.012 15.1526 241.088 13.7082 243.496 12.6249C245.903 11.5416 248.431 11 251.079 11C254.69 11 257.729 11.7523 260.197 13.2569C262.664 14.7012 264.53 16.8979 265.794 19.8469C267.057 22.7356 267.689 26.2864 267.689 30.4992V59.9286H253.155V31.6728C253.155 29.7469 252.884 28.1521 252.343 26.8883C251.801 25.6244 250.958 24.6916 249.815 24.0898C248.732 23.4277 247.378 23.1268 245.753 23.187C244.489 23.187 243.315 23.3977 242.232 23.8189C241.149 24.18 240.216 24.7518 239.433 25.5341C238.651 26.2563 238.019 27.0989 237.538 28.0618C237.116 29.0247 236.906 30.0779 236.906 31.2214V59.9286H229.774C228.089 59.9286 226.645 59.9286 225.441 59.9286C224.237 59.9286 223.244 59.9286 222.462 59.9286Z" fill="#202020"/>
<path d="M180.881 60.9208C177.33 60.9208 174.291 60.1685 171.764 58.6639C169.296 57.0992 167.37 54.8724 165.986 51.9836C164.662 49.0949 164 45.6343 164 41.6021V11.9922H178.534V39.6161C178.534 41.5419 178.835 43.1969 179.437 44.5812C180.039 45.9654 180.941 47.0486 182.145 47.831C183.349 48.5532 184.793 48.9143 186.478 48.9143C187.742 48.9143 188.886 48.7037 189.909 48.2824C190.992 47.8611 191.895 47.2894 192.617 46.5672C193.399 45.7848 194.001 44.9122 194.422 43.9492C194.844 42.9261 195.054 41.8127 195.054 40.6091V11.9922H209.588V59.9278H195.957L195.325 50.0879L198.033 49.0046C197.311 51.2915 196.108 53.3377 194.422 55.1432C192.737 56.8885 190.721 58.3028 188.374 59.3861C186.027 60.4092 183.529 60.9208 180.881 60.9208Z" fill="#202020"/>
<defs>
<linearGradient id="paint0_linear_945_4953" x1="18" y1="13" x2="130" y2="136" gradientUnits="userSpaceOnUse">
<stop stop-color="#D9D9D9"/>
<stop offset="1" stop-color="#737373"/>
</linearGradient>
<linearGradient id="paint1_linear_945_4953" x1="18" y1="13" x2="135.901" y2="130.057" gradientUnits="userSpaceOnUse">
<stop stop-color="#FFAE35"/>
<stop offset="0.576923" stop-color="#FF532A"/>
<stop offset="0.918269" stop-color="#FF161A"/>
</linearGradient>
</defs>
</svg>
